<svg width="364" height="742" viewBox="0 0 364 742" fill="none" xmlns="http://www.w3.org/2000/svg">
<mask id="path-1-inside-1_305_220" fill="white">
<path d="M349 29C357.284 29.0002 364 35.7158 364 44V726.83C364 735.114 357.284 741.83 349 741.83H26C17.7157 741.83 11 735.114 11 726.83V44C11 35.7157 17.7157 29 26 29H54.5879C60.1107 29 64.5879 33.4772 64.5879 39C64.5879 58.8822 80.7056 75 100.588 75H273.588C293.47 75 309.588 58.8822 309.588 39C309.588 33.4772 314.065 29 319.588 29H349Z"/>
</mask>
<path d="M349 29L349 27H349V29ZM364 44L366 44L364 44ZM349 741.83L349 743.83L349 743.83L349 741.83ZM11 44L9 44V44H11ZM26 29L26 27H26L26 29ZM64.5879 39L62.5879 39V39L64.5879 39ZM100.588 75L100.588 77H100.588V75ZM309.588 39L311.588 39V39H309.588ZM349 29L349 31C356.18 31.0001 362 36.8204 362 44L364 44L366 44C366 34.6112 358.389 27.0002 349 27L349 29ZM364 44H362V726.83H364H366V44H364ZM364 726.83H362C362 734.01 356.18 739.83 349 739.83L349 741.83L349 743.83C358.389 743.83 366 736.219 366 726.83H364ZM349 741.83V739.83H26V741.83V743.83H349V741.83ZM26 741.83V739.83C18.8203 739.83 13 734.01 13 726.83H11H9C9 736.219 16.6112 743.83 26 743.83V741.83ZM11 726.83H13V44H11H9V726.83H11ZM11 44L13 44C13 36.8203 18.8203 31 26 31L26 29L26 27C16.6112 27 9 34.6112 9 44L11 44ZM26 29V31H54.5879V29V27H26V29ZM64.5879 39L62.5879 39C62.5879 59.9868 79.6011 77 100.588 77L100.588 75L100.588 73C81.8102 73 66.5879 57.7777 66.5879 39L64.5879 39ZM100.588 75V77H273.588V75V73H100.588V75ZM273.588 75V77C294.575 77 311.588 59.9868 311.588 39L309.588 39L307.588 39C307.588 57.7777 292.366 73 273.588 73V75ZM319.588 29V31H349V29V27H319.588V29ZM309.588 39H311.588C311.588 34.5817 315.17 31 319.588 31V29V27C312.96 27 307.588 32.3726 307.588 39H309.588ZM54.5879 29V31C59.0062 31 62.5879 34.5817 62.5879 39H64.5879H66.5879C66.5879 32.3726 61.2153 27 54.5879 27V29Z" fill="#F64040" mask="url(#path-1-inside-1_305_220)"/>
<mask id="path-3-outside-2_305_220" maskUnits="userSpaceOnUse" x="10" y="113" width="31" height="142" fill="black">
<rect fill="white" x="10" y="113" width="31" height="142"/>
<path d="M11 114.039H39.0078V134.039H35.0039V118.043H26.9961V130.055H22.9922V118.043H15.0039V134.039H11V114.039ZM18.7539 138.277C18.9232 138.108 19.125 138.023 19.3594 138.023H39.0078V142.027H21L15.0039 148.023L21 154.039H39.0078V158.023H19.3594C19.112 158.023 18.9102 157.945 18.7539 157.789L11 150.035V146.031L18.7539 138.277ZM11 162.008H39.0078V182.008H35.0039V166.012H26.9961V178.023H22.9922V166.012H15.0039V182.008H11V162.008ZM11 185.992H39.0078V189.996H31.9961V192.008L21.9961 202.008H39.0078V205.992H11V202.008H17.9922V199.996L27.9922 189.996H11V185.992ZM11 217.984H35.0039V209.977H39.0078V229.977H35.0039V221.988H11V217.984ZM11 238.727C11 238.479 11.0781 238.277 11.2344 238.121L15.1602 234.215C15.3294 234.046 15.5312 233.961 15.7656 233.961H21V237.965H17.4062L15.0039 240.367V247.574L17.4062 249.977H20.6094L22.9922 247.574V238.727C22.9922 238.492 23.0768 238.29 23.2461 238.121L27.1523 234.215C27.3216 234.046 27.5234 233.961 27.7578 233.961H34.2422C34.4766 233.961 34.6784 234.046 34.8477 234.215L38.7539 238.121C38.9232 238.29 39.0078 238.492 39.0078 238.727V249.215C39.0078 249.436 38.9232 249.632 38.7539 249.801L34.8477 253.727C34.6914 253.883 34.4896 253.961 34.2422 253.961H29.0078V249.977H32.6016L35.0039 247.574V240.367L32.6016 237.965H29.3984L26.9961 240.367V249.215C26.9961 249.449 26.918 249.645 26.7617 249.801L22.8359 253.727C22.6797 253.883 22.4779 253.961 22.2305 253.961H15.7656C15.5182 253.961 15.3164 253.883 15.1602 253.727L11.2344 249.801C11.0781 249.645 11 249.449 11 249.215V238.727Z"/>
</mask>
<path d="M11 114.039V113.039H10V114.039H11ZM39.0078 114.039H40.0078V113.039H39.0078V114.039ZM39.0078 134.039V135.039H40.0078V134.039H39.0078ZM35.0039 134.039H34.0039V135.039H35.0039V134.039ZM35.0039 118.043H36.0039V117.043H35.0039V118.043ZM26.9961 118.043V117.043H25.9961V118.043H26.9961ZM26.9961 130.055V131.055H27.9961V130.055H26.9961ZM22.9922 130.055H21.9922V131.055H22.9922V130.055ZM22.9922 118.043H23.9922V117.043H22.9922V118.043ZM15.0039 118.043V117.043H14.0039V118.043H15.0039ZM15.0039 134.039V135.039H16.0039V134.039H15.0039ZM11 134.039H10V135.039H11V134.039ZM11 114.039V115.039H39.0078V114.039V113.039H11V114.039ZM39.0078 114.039H38.0078V134.039H39.0078H40.0078V114.039H39.0078ZM39.0078 134.039V133.039H35.0039V134.039V135.039H39.0078V134.039ZM35.0039 134.039H36.0039V118.043H35.0039H34.0039V134.039H35.0039ZM35.0039 118.043V117.043H26.9961V118.043V119.043H35.0039V118.043ZM26.9961 118.043H25.9961V130.055H26.9961H27.9961V118.043H26.9961ZM26.9961 130.055V129.055H22.9922V130.055V131.055H26.9961V130.055ZM22.9922 130.055H23.9922V118.043H22.9922H21.9922V130.055H22.9922ZM22.9922 118.043V117.043H15.0039V118.043V119.043H22.9922V118.043ZM15.0039 118.043H14.0039V134.039H15.0039H16.0039V118.043H15.0039ZM15.0039 134.039V133.039H11V134.039V135.039H15.0039V134.039ZM11 134.039H12V114.039H11H10V134.039H11ZM18.7539 138.277L18.0468 137.57L18.7539 138.277ZM39.0078 138.023H40.0078V137.023H39.0078V138.023ZM39.0078 142.027V143.027H40.0078V142.027H39.0078ZM21 142.027V141.027H20.5858L20.2929 141.32L21 142.027ZM15.0039 148.023L14.2968 147.316L13.5908 148.022L14.2957 148.729L15.0039 148.023ZM21 154.039L20.2917 154.745L20.5848 155.039H21V154.039ZM39.0078 154.039H40.0078V153.039H39.0078V154.039ZM39.0078 158.023V159.023H40.0078V158.023H39.0078ZM11 150.035H10V150.449L10.2929 150.742L11 150.035ZM11 146.031L10.2929 145.324L10 145.617V146.031H11ZM18.7539 138.277L19.461 138.984C19.4625 138.983 19.4486 138.997 19.419 139.009C19.3889 139.022 19.3655 139.023 19.3594 139.023V138.023V137.023C18.8535 137.023 18.3991 137.218 18.0468 137.57L18.7539 138.277ZM19.3594 138.023V139.023H39.0078V138.023V137.023H19.3594V138.023ZM39.0078 138.023H38.0078V142.027H39.0078H40.0078V138.023H39.0078ZM39.0078 142.027V141.027H21V142.027V143.027H39.0078V142.027ZM21 142.027L20.2929 141.32L14.2968 147.316L15.0039 148.023L15.711 148.731L21.7071 142.734L21 142.027ZM15.0039 148.023L14.2957 148.729L20.2917 154.745L21 154.039L21.7083 153.333L15.7122 147.317L15.0039 148.023ZM21 154.039V155.039H39.0078V154.039V153.039H21V154.039ZM39.0078 154.039H38.0078V158.023H39.0078H40.0078V154.039H39.0078ZM39.0078 158.023V157.023H19.3594V158.023V159.023H39.0078V158.023ZM19.3594 158.023V157.023C19.3417 157.023 19.354 157.021 19.3835 157.032C19.4151 157.045 19.4428 157.064 19.461 157.082L18.7539 157.789L18.0468 158.496C18.4138 158.863 18.8814 159.023 19.3594 159.023V158.023ZM18.7539 157.789L19.461 157.082L11.7071 149.328L11 150.035L10.2929 150.742L18.0468 158.496L18.7539 157.789ZM11 150.035H12V146.031H11H10V150.035H11ZM11 146.031L11.7071 146.738L19.461 138.984L18.7539 138.277L18.0468 137.57L10.2929 145.324L11 146.031ZM11 162.008V161.008H10V162.008H11ZM39.0078 162.008H40.0078V161.008H39.0078V162.008ZM39.0078 182.008V183.008H40.0078V182.008H39.0078ZM35.0039 182.008H34.0039V183.008H35.0039V182.008ZM35.0039 166.012H36.0039V165.012H35.0039V166.012ZM26.9961 166.012V165.012H25.9961V166.012H26.9961ZM26.9961 178.023V179.023H27.9961V178.023H26.9961ZM22.9922 178.023H21.9922V179.023H22.9922V178.023ZM22.9922 166.012H23.9922V165.012H22.9922V166.012ZM15.0039 166.012V165.012H14.0039V166.012H15.0039ZM15.0039 182.008V183.008H16.0039V182.008H15.0039ZM11 182.008H10V183.008H11V182.008ZM11 162.008V163.008H39.0078V162.008V161.008H11V162.008ZM39.0078 162.008H38.0078V182.008H39.0078H40.0078V162.008H39.0078ZM39.0078 182.008V181.008H35.0039V182.008V183.008H39.0078V182.008ZM35.0039 182.008H36.0039V166.012H35.0039H34.0039V182.008H35.0039ZM35.0039 166.012V165.012H26.9961V166.012V167.012H35.0039V166.012ZM26.9961 166.012H25.9961V178.023H26.9961H27.9961V166.012H26.9961ZM26.9961 178.023V177.023H22.9922V178.023V179.023H26.9961V178.023ZM22.9922 178.023H23.9922V166.012H22.9922H21.9922V178.023H22.9922ZM22.9922 166.012V165.012H15.0039V166.012V167.012H22.9922V166.012ZM15.0039 166.012H14.0039V182.008H15.0039H16.0039V166.012H15.0039ZM15.0039 182.008V181.008H11V182.008V183.008H15.0039V182.008ZM11 182.008H12V162.008H11H10V182.008H11ZM11 185.992V184.992H10V185.992H11ZM39.0078 185.992H40.0078V184.992H39.0078V185.992ZM39.0078 189.996V190.996H40.0078V189.996H39.0078ZM31.9961 189.996V188.996H30.9961V189.996H31.9961ZM31.9961 192.008L32.7032 192.715L32.9961 192.422V192.008H31.9961ZM21.9961 202.008L21.289 201.301L19.5819 203.008H21.9961V202.008ZM39.0078 202.008H40.0078V201.008H39.0078V202.008ZM39.0078 205.992V206.992H40.0078V205.992H39.0078ZM11 205.992H10V206.992H11V205.992ZM11 202.008V201.008H10V202.008H11ZM17.9922 202.008V203.008H18.9922V202.008H17.9922ZM17.9922 199.996L17.2851 199.289L16.9922 199.582V199.996H17.9922ZM27.9922 189.996L28.6993 190.703L30.4064 188.996H27.9922V189.996ZM11 189.996H10V190.996H11V189.996ZM11 185.992V186.992H39.0078V185.992V184.992H11V185.992ZM39.0078 185.992H38.0078V189.996H39.0078H40.0078V185.992H39.0078ZM39.0078 189.996V188.996H31.9961V189.996V190.996H39.0078V189.996ZM31.9961 189.996H30.9961V192.008H31.9961H32.9961V189.996H31.9961ZM31.9961 192.008L31.289 191.301L21.289 201.301L21.9961 202.008L22.7032 202.715L32.7032 192.715L31.9961 192.008ZM21.9961 202.008V203.008H39.0078V202.008V201.008H21.9961V202.008ZM39.0078 202.008H38.0078V205.992H39.0078H40.0078V202.008H39.0078ZM39.0078 205.992V204.992H11V205.992V206.992H39.0078V205.992ZM11 205.992H12V202.008H11H10V205.992H11ZM11 202.008V203.008H17.9922V202.008V201.008H11V202.008ZM17.9922 202.008H18.9922V199.996H17.9922H16.9922V202.008H17.9922ZM17.9922 199.996L18.6993 200.703L28.6993 190.703L27.9922 189.996L27.2851 189.289L17.2851 199.289L17.9922 199.996ZM27.9922 189.996V188.996H11V189.996V190.996H27.9922V189.996ZM11 189.996H12V185.992H11H10V189.996H11ZM11 217.984V216.984H10V217.984H11ZM35.0039 217.984V218.984H36.0039V217.984H35.0039ZM35.0039 209.977V208.977H34.0039V209.977H35.0039ZM39.0078 209.977H40.0078V208.977H39.0078V209.977ZM39.0078 229.977V230.977H40.0078V229.977H39.0078ZM35.0039 229.977H34.0039V230.977H35.0039V229.977ZM35.0039 221.988H36.0039V220.988H35.0039V221.988ZM11 221.988H10V222.988H11V221.988ZM11 217.984V218.984H35.0039V217.984V216.984H11V217.984ZM35.0039 217.984H36.0039V209.977H35.0039H34.0039V217.984H35.0039ZM35.0039 209.977V210.977H39.0078V209.977V208.977H35.0039V209.977ZM39.0078 209.977H38.0078V229.977H39.0078H40.0078V209.977H39.0078ZM39.0078 229.977V228.977H35.0039V229.977V230.977H39.0078V229.977ZM35.0039 229.977H36.0039V221.988H35.0039H34.0039V229.977H35.0039ZM35.0039 221.988V220.988H11V221.988V222.988H35.0039V221.988ZM11 221.988H12V217.984H11H10V221.988H11ZM11.2344 238.121L10.529 237.412L10.5273 237.414L11.2344 238.121ZM15.1602 234.215L15.8655 234.924L15.8673 234.922L15.1602 234.215ZM21 233.961H22V232.961H21V233.961ZM21 237.965V238.965H22V237.965H21ZM17.4062 237.965V236.965H16.992L16.6991 237.258L17.4062 237.965ZM15.0039 240.367L14.2968 239.66L14.0039 239.953V240.367H15.0039ZM15.0039 247.574H14.0039V247.988L14.2968 248.281L15.0039 247.574ZM17.4062 249.977L16.6991 250.684L16.992 250.977H17.4062V249.977ZM20.6094 249.977V250.977H21.026L21.3194 250.681L20.6094 249.977ZM22.9922 247.574L23.7022 248.278L23.9922 247.986V247.574H22.9922ZM23.2461 238.121L22.539 237.414L23.2461 238.121ZM27.1523 234.215L27.8595 234.922L27.1523 234.215ZM34.8477 234.215L35.5548 233.508L34.8477 234.215ZM38.7539 238.121L38.0468 238.828L38.7539 238.121ZM38.7539 249.801L38.0468 249.094L38.045 249.095L38.7539 249.801ZM34.8477 253.727L35.5548 254.434L35.5565 254.432L34.8477 253.727ZM29.0078 253.961H28.0078V254.961H29.0078V253.961ZM29.0078 249.977V248.977H28.0078V249.977H29.0078ZM32.6016 249.977V250.977H33.0158L33.3087 250.684L32.6016 249.977ZM35.0039 247.574L35.711 248.281L36.0039 247.988V247.574H35.0039ZM35.0039 240.367H36.0039V239.953L35.711 239.66L35.0039 240.367ZM32.6016 237.965L33.3087 237.258L33.0158 236.965H32.6016V237.965ZM29.3984 237.965V236.965H28.9842L28.6913 237.258L29.3984 237.965ZM26.9961 240.367L26.289 239.66L25.9961 239.953V240.367H26.9961ZM11 238.727H12C12 238.709 12.0026 238.721 11.9912 238.751C11.9789 238.782 11.9597 238.81 11.9415 238.828L11.2344 238.121L10.5273 237.414C10.1603 237.781 10 238.249 10 238.727H11ZM11.2344 238.121L11.9397 238.83L15.8655 234.924L15.1602 234.215L14.4548 233.506L10.529 237.412L11.2344 238.121ZM15.1602 234.215L15.8673 234.922C15.8687 234.92 15.8548 234.934 15.8252 234.947C15.7952 234.959 15.7717 234.961 15.7656 234.961V233.961V232.961C15.2597 232.961 14.8054 233.155 14.453 233.508L15.1602 234.215ZM15.7656 233.961V234.961H21V233.961V232.961H15.7656V233.961ZM21 233.961H20V237.965H21H22V233.961H21ZM21 237.965V236.965H17.4062V237.965V238.965H21V237.965ZM17.4062 237.965L16.6991 237.258L14.2968 239.66L15.0039 240.367L15.711 241.074L18.1134 238.672L17.4062 237.965ZM15.0039 240.367H14.0039V247.574H15.0039H16.0039V240.367H15.0039ZM15.0039 247.574L14.2968 248.281L16.6991 250.684L17.4062 249.977L18.1134 249.269L15.711 246.867L15.0039 247.574ZM17.4062 249.977V250.977H20.6094V249.977V248.977H17.4062V249.977ZM20.6094 249.977L21.3194 250.681L23.7022 248.278L22.9922 247.574L22.2822 246.87L19.8994 249.272L20.6094 249.977ZM22.9922 247.574H23.9922V238.727H22.9922H21.9922V247.574H22.9922ZM22.9922 238.727H23.9922C23.9922 238.733 23.9905 238.756 23.9779 238.786C23.9654 238.816 23.9517 238.83 23.9532 238.828L23.2461 238.121L22.539 237.414C22.1867 237.766 21.9922 238.221 21.9922 238.727H22.9922ZM23.2461 238.121L23.9532 238.828L27.8595 234.922L27.1523 234.215L26.4452 233.508L22.539 237.414L23.2461 238.121ZM27.1523 234.215L27.8595 234.922C27.8609 234.92 27.847 234.934 27.8174 234.947C27.7873 234.959 27.7639 234.961 27.7578 234.961V233.961V232.961C27.2519 232.961 26.7976 233.155 26.4452 233.508L27.1523 234.215ZM27.7578 233.961V234.961H34.2422V233.961V232.961H27.7578V233.961ZM34.2422 233.961V234.961C34.2361 234.961 34.2127 234.959 34.1826 234.947C34.153 234.934 34.1391 234.92 34.1405 234.922L34.8477 234.215L35.5548 233.508C35.2024 233.155 34.7481 232.961 34.2422 232.961V233.961ZM34.8477 234.215L34.1405 234.922L38.0468 238.828L38.7539 238.121L39.461 237.414L35.5548 233.508L34.8477 234.215ZM38.7539 238.121L38.0468 238.828C38.0483 238.83 38.0346 238.816 38.0221 238.786C38.0095 238.756 38.0078 238.733 38.0078 238.727H39.0078H40.0078C40.0078 238.221 39.8133 237.766 39.461 237.414L38.7539 238.121ZM39.0078 238.727H38.0078V249.215H39.0078H40.0078V238.727H39.0078ZM39.0078 249.215H38.0078C38.0078 249.194 38.0125 249.163 38.0268 249.13C38.0404 249.098 38.0535 249.087 38.0468 249.094L38.7539 249.801L39.461 250.508C39.801 250.168 40.0078 249.724 40.0078 249.215H39.0078ZM38.7539 249.801L38.045 249.095L34.1388 253.021L34.8477 253.727L35.5565 254.432L39.4628 250.506L38.7539 249.801ZM34.8477 253.727L34.1405 253.019C34.1587 253.001 34.1864 252.982 34.2181 252.97C34.2476 252.958 34.2599 252.961 34.2422 252.961V253.961V254.961C34.7201 254.961 35.1878 254.801 35.5548 254.434L34.8477 253.727ZM34.2422 253.961V252.961H29.0078V253.961V254.961H34.2422V253.961ZM29.0078 253.961H30.0078V249.977H29.0078H28.0078V253.961H29.0078ZM29.0078 249.977V250.977H32.6016V249.977V248.977H29.0078V249.977ZM32.6016 249.977L33.3087 250.684L35.711 248.281L35.0039 247.574L34.2968 246.867L31.8945 249.269L32.6016 249.977ZM35.0039 247.574H36.0039V240.367H35.0039H34.0039V247.574H35.0039ZM35.0039 240.367L35.711 239.66L33.3087 237.258L32.6016 237.965L31.8945 238.672L34.2968 241.074L35.0039 240.367ZM32.6016 237.965V236.965H29.3984V237.965V238.965H32.6016V237.965ZM29.3984 237.965L28.6913 237.258L26.289 239.66L26.9961 240.367L27.7032 241.074L30.1055 238.672L29.3984 237.965ZM26.9961 240.367H25.9961V249.215H26.9961H27.9961V240.367H26.9961ZM26.9961 249.215H25.9961C25.9961 249.219 25.9957 249.199 26.009 249.166C26.0228 249.131 26.0419 249.106 26.0546 249.094L26.7617 249.801L27.4688 250.508C27.8249 250.152 27.9961 249.697 27.9961 249.215H26.9961ZM26.7617 249.801L26.0546 249.094L22.1288 253.019L22.8359 253.727L23.543 254.434L27.4688 250.508L26.7617 249.801ZM22.8359 253.727L22.1288 253.019C22.147 253.001 22.1747 252.982 22.2064 252.97C22.2359 252.958 22.2482 252.961 22.2305 252.961V253.961V254.961C22.7084 254.961 23.1761 254.801 23.543 254.434L22.8359 253.727ZM22.2305 253.961V252.961H15.7656V253.961V254.961H22.2305V253.961ZM15.7656 253.961V252.961C15.7479 252.961 15.7602 252.958 15.7897 252.97C15.8214 252.982 15.8491 253.001 15.8673 253.019L15.1602 253.727L14.453 254.434C14.82 254.801 15.2877 254.961 15.7656 254.961V253.961ZM15.1602 253.727L15.8673 253.019L11.9415 249.094L11.2344 249.801L10.5273 250.508L14.453 254.434L15.1602 253.727ZM11.2344 249.801L11.9415 249.094C11.9542 249.106 11.9733 249.131 11.9871 249.166C12.0004 249.199 12 249.219 12 249.215H11H10C10 249.697 10.1712 250.152 10.5273 250.508L11.2344 249.801ZM11 249.215H12V238.727H11H10V249.215H11Z" fill="#F64040" mask="url(#path-3-outside-2_305_220)"/>
<mask id="path-5-outside-3_305_220" maskUnits="userSpaceOnUse" x="327" y="515" width="31" height="142" fill="black">
<rect fill="white" x="327" y="515" width="31" height="142"/>
<path d="M357 655.961H328.992V635.961H332.996V651.957H341.004V639.945H345.008V651.957H352.996V635.961H357V655.961ZM349.246 631.723C349.077 631.892 348.875 631.977 348.641 631.977H328.992V627.973H347L352.996 621.977L347 615.961H328.992V611.977H348.641C348.888 611.977 349.09 612.055 349.246 612.211L357 619.965V623.969L349.246 631.723ZM357 607.992H328.992V587.992H332.996V603.988H341.004V591.977H345.008V603.988H352.996V587.992H357V607.992ZM357 584.008H328.992V580.004H336.004V577.992L346.004 567.992H328.992V564.008H357V567.992H350.008V570.004L340.008 580.004H357V584.008ZM357 552.016H332.996V560.023H328.992V540.023H332.996V548.012H357V552.016ZM357 531.273C357 531.521 356.922 531.723 356.766 531.879L352.84 535.785C352.671 535.954 352.469 536.039 352.234 536.039H347V532.035H350.594L352.996 529.633V522.426L350.594 520.023H347.391L345.008 522.426V531.273C345.008 531.508 344.923 531.71 344.754 531.879L340.848 535.785C340.678 535.954 340.477 536.039 340.242 536.039H333.758C333.523 536.039 333.322 535.954 333.152 535.785L329.246 531.879C329.077 531.71 328.992 531.508 328.992 531.273V520.785C328.992 520.564 329.077 520.368 329.246 520.199L333.152 516.273C333.309 516.117 333.51 516.039 333.758 516.039H338.992V520.023H335.398L332.996 522.426V529.633L335.398 532.035H338.602L341.004 529.633V520.785C341.004 520.551 341.082 520.355 341.238 520.199L345.164 516.273C345.32 516.117 345.522 516.039 345.77 516.039H352.234C352.482 516.039 352.684 516.117 352.84 516.273L356.766 520.199C356.922 520.355 357 520.551 357 520.785V531.273Z"/>
</mask>
<path d="M357 655.961V656.961H358V655.961H357ZM328.992 655.961H327.992V656.961H328.992V655.961ZM328.992 635.961V634.961H327.992V635.961H328.992ZM332.996 635.961H333.996V634.961H332.996V635.961ZM332.996 651.957H331.996V652.957H332.996V651.957ZM341.004 651.957V652.957H342.004V651.957H341.004ZM341.004 639.945V638.945H340.004V639.945H341.004ZM345.008 639.945H346.008V638.945H345.008V639.945ZM345.008 651.957H344.008V652.957H345.008V651.957ZM352.996 651.957V652.957H353.996V651.957H352.996ZM352.996 635.961V634.961H351.996V635.961H352.996ZM357 635.961H358V634.961H357V635.961ZM357 655.961V654.961H328.992V655.961V656.961H357V655.961ZM328.992 655.961H329.992V635.961H328.992H327.992V655.961H328.992ZM328.992 635.961V636.961H332.996V635.961V634.961H328.992V635.961ZM332.996 635.961H331.996V651.957H332.996H333.996V635.961H332.996ZM332.996 651.957V652.957H341.004V651.957V650.957H332.996V651.957ZM341.004 651.957H342.004V639.945H341.004H340.004V651.957H341.004ZM341.004 639.945V640.945H345.008V639.945V638.945H341.004V639.945ZM345.008 639.945H344.008V651.957H345.008H346.008V639.945H345.008ZM345.008 651.957V652.957H352.996V651.957V650.957H345.008V651.957ZM352.996 651.957H353.996V635.961H352.996H351.996V651.957H352.996ZM352.996 635.961V636.961H357V635.961V634.961H352.996V635.961ZM357 635.961H356V655.961H357H358V635.961H357ZM349.246 631.723L349.953 632.43L349.246 631.723ZM328.992 631.977H327.992V632.977H328.992V631.977ZM328.992 627.973V626.973H327.992V627.973H328.992ZM347 627.973V628.973H347.414L347.707 628.68L347 627.973ZM352.996 621.977L353.703 622.684L354.409 621.978L353.704 621.271L352.996 621.977ZM347 615.961L347.708 615.255L347.415 614.961H347V615.961ZM328.992 615.961H327.992V616.961H328.992V615.961ZM328.992 611.977V610.977H327.992V611.977H328.992ZM357 619.965H358V619.551L357.707 619.258L357 619.965ZM357 623.969L357.707 624.676L358 624.383V623.969H357ZM349.246 631.723L348.539 631.016C348.538 631.017 348.551 631.003 348.581 630.991C348.611 630.978 348.635 630.977 348.641 630.977V631.977V632.977C349.147 632.977 349.601 632.782 349.953 632.43L349.246 631.723ZM348.641 631.977V630.977H328.992V631.977V632.977H348.641V631.977ZM328.992 631.977H329.992V627.973H328.992H327.992V631.977H328.992ZM328.992 627.973V628.973H347V627.973V626.973H328.992V627.973ZM347 627.973L347.707 628.68L353.703 622.684L352.996 621.977L352.289 621.269L346.293 627.266L347 627.973ZM352.996 621.977L353.704 621.271L347.708 615.255L347 615.961L346.292 616.667L352.288 622.683L352.996 621.977ZM347 615.961V614.961H328.992V615.961V616.961H347V615.961ZM328.992 615.961H329.992V611.977H328.992H327.992V615.961H328.992ZM328.992 611.977V612.977H348.641V611.977V610.977H328.992V611.977ZM348.641 611.977V612.977C348.658 612.977 348.646 612.979 348.617 612.968C348.585 612.955 348.557 612.936 348.539 612.918L349.246 612.211L349.953 611.504C349.586 611.137 349.119 610.977 348.641 610.977V611.977ZM349.246 612.211L348.539 612.918L356.293 620.672L357 619.965L357.707 619.258L349.953 611.504L349.246 612.211ZM357 619.965H356V623.969H357H358V619.965H357ZM357 623.969L356.293 623.262L348.539 631.016L349.246 631.723L349.953 632.43L357.707 624.676L357 623.969ZM357 607.992V608.992H358V607.992H357ZM328.992 607.992H327.992V608.992H328.992V607.992ZM328.992 587.992V586.992H327.992V587.992H328.992ZM332.996 587.992H333.996V586.992H332.996V587.992ZM332.996 603.988H331.996V604.988H332.996V603.988ZM341.004 603.988V604.988H342.004V603.988H341.004ZM341.004 591.977V590.977H340.004V591.977H341.004ZM345.008 591.977H346.008V590.977H345.008V591.977ZM345.008 603.988H344.008V604.988H345.008V603.988ZM352.996 603.988V604.988H353.996V603.988H352.996ZM352.996 587.992V586.992H351.996V587.992H352.996ZM357 587.992H358V586.992H357V587.992ZM357 607.992V606.992H328.992V607.992V608.992H357V607.992ZM328.992 607.992H329.992V587.992H328.992H327.992V607.992H328.992ZM328.992 587.992V588.992H332.996V587.992V586.992H328.992V587.992ZM332.996 587.992H331.996V603.988H332.996H333.996V587.992H332.996ZM332.996 603.988V604.988H341.004V603.988V602.988H332.996V603.988ZM341.004 603.988H342.004V591.977H341.004H340.004V603.988H341.004ZM341.004 591.977V592.977H345.008V591.977V590.977H341.004V591.977ZM345.008 591.977H344.008V603.988H345.008H346.008V591.977H345.008ZM345.008 603.988V604.988H352.996V603.988V602.988H345.008V603.988ZM352.996 603.988H353.996V587.992H352.996H351.996V603.988H352.996ZM352.996 587.992V588.992H357V587.992V586.992H352.996V587.992ZM357 587.992H356V607.992H357H358V587.992H357ZM357 584.008V585.008H358V584.008H357ZM328.992 584.008H327.992V585.008H328.992V584.008ZM328.992 580.004V579.004H327.992V580.004H328.992ZM336.004 580.004V581.004H337.004V580.004H336.004ZM336.004 577.992L335.297 577.285L335.004 577.578V577.992H336.004ZM346.004 567.992L346.711 568.699L348.418 566.992H346.004V567.992ZM328.992 567.992H327.992V568.992H328.992V567.992ZM328.992 564.008V563.008H327.992V564.008H328.992ZM357 564.008H358V563.008H357V564.008ZM357 567.992V568.992H358V567.992H357ZM350.008 567.992V566.992H349.008V567.992H350.008ZM350.008 570.004L350.715 570.711L351.008 570.418V570.004H350.008ZM340.008 580.004L339.301 579.297L337.594 581.004H340.008V580.004ZM357 580.004H358V579.004H357V580.004ZM357 584.008V583.008H328.992V584.008V585.008H357V584.008ZM328.992 584.008H329.992V580.004H328.992H327.992V584.008H328.992ZM328.992 580.004V581.004H336.004V580.004V579.004H328.992V580.004ZM336.004 580.004H337.004V577.992H336.004H335.004V580.004H336.004ZM336.004 577.992L336.711 578.699L346.711 568.699L346.004 567.992L345.297 567.285L335.297 577.285L336.004 577.992ZM346.004 567.992V566.992H328.992V567.992V568.992H346.004V567.992ZM328.992 567.992H329.992V564.008H328.992H327.992V567.992H328.992ZM328.992 564.008V565.008H357V564.008V563.008H328.992V564.008ZM357 564.008H356V567.992H357H358V564.008H357ZM357 567.992V566.992H350.008V567.992V568.992H357V567.992ZM350.008 567.992H349.008V570.004H350.008H351.008V567.992H350.008ZM350.008 570.004L349.301 569.297L339.301 579.297L340.008 580.004L340.715 580.711L350.715 570.711L350.008 570.004ZM340.008 580.004V581.004H357V580.004V579.004H340.008V580.004ZM357 580.004H356V584.008H357H358V580.004H357ZM357 552.016V553.016H358V552.016H357ZM332.996 552.016V551.016H331.996V552.016H332.996ZM332.996 560.023V561.023H333.996V560.023H332.996ZM328.992 560.023H327.992V561.023H328.992V560.023ZM328.992 540.023V539.023H327.992V540.023H328.992ZM332.996 540.023H333.996V539.023H332.996V540.023ZM332.996 548.012H331.996V549.012H332.996V548.012ZM357 548.012H358V547.012H357V548.012ZM357 552.016V551.016H332.996V552.016V553.016H357V552.016ZM332.996 552.016H331.996V560.023H332.996H333.996V552.016H332.996ZM332.996 560.023V559.023H328.992V560.023V561.023H332.996V560.023ZM328.992 560.023H329.992V540.023H328.992H327.992V560.023H328.992ZM328.992 540.023V541.023H332.996V540.023V539.023H328.992V540.023ZM332.996 540.023H331.996V548.012H332.996H333.996V540.023H332.996ZM332.996 548.012V549.012H357V548.012V547.012H332.996V548.012ZM357 548.012H356V552.016H357H358V548.012H357ZM356.766 531.879L357.471 532.588L357.473 532.586L356.766 531.879ZM352.84 535.785L352.135 535.076L352.133 535.078L352.84 535.785ZM347 536.039H346V537.039H347V536.039ZM347 532.035V531.035H346V532.035H347ZM350.594 532.035V533.035H351.008L351.301 532.742L350.594 532.035ZM352.996 529.633L353.703 530.34L353.996 530.047V529.633H352.996ZM352.996 522.426H353.996V522.012L353.703 521.719L352.996 522.426ZM350.594 520.023L351.301 519.316L351.008 519.023H350.594V520.023ZM347.391 520.023V519.023H346.974L346.681 519.319L347.391 520.023ZM345.008 522.426L344.298 521.722L344.008 522.014V522.426H345.008ZM344.754 531.879L345.461 532.586L344.754 531.879ZM340.848 535.785L340.141 535.078L340.848 535.785ZM333.152 535.785L332.445 536.492L333.152 535.785ZM329.246 531.879L329.953 531.172L329.246 531.879ZM329.246 520.199L329.953 520.906L329.955 520.905L329.246 520.199ZM333.152 516.273L332.445 515.566L332.443 515.568L333.152 516.273ZM338.992 516.039H339.992V515.039H338.992V516.039ZM338.992 520.023V521.023H339.992V520.023H338.992ZM335.398 520.023V519.023H334.984L334.691 519.316L335.398 520.023ZM332.996 522.426L332.289 521.719L331.996 522.012V522.426H332.996ZM332.996 529.633H331.996V530.047L332.289 530.34L332.996 529.633ZM335.398 532.035L334.691 532.742L334.984 533.035H335.398V532.035ZM338.602 532.035V533.035H339.016L339.309 532.742L338.602 532.035ZM341.004 529.633L341.711 530.34L342.004 530.047V529.633H341.004ZM357 531.273H356C356 531.291 355.997 531.279 356.009 531.249C356.021 531.218 356.04 531.19 356.059 531.172L356.766 531.879L357.473 532.586C357.84 532.219 358 531.751 358 531.273H357ZM356.766 531.879L356.06 531.17L352.135 535.076L352.84 535.785L353.545 536.494L357.471 532.588L356.766 531.879ZM352.84 535.785L352.133 535.078C352.131 535.08 352.145 535.066 352.175 535.053C352.205 535.041 352.228 535.039 352.234 535.039V536.039V537.039C352.74 537.039 353.195 536.845 353.547 536.492L352.84 535.785ZM352.234 536.039V535.039H347V536.039V537.039H352.234V536.039ZM347 536.039H348V532.035H347H346V536.039H347ZM347 532.035V533.035H350.594V532.035V531.035H347V532.035ZM350.594 532.035L351.301 532.742L353.703 530.34L352.996 529.633L352.289 528.926L349.887 531.328L350.594 532.035ZM352.996 529.633H353.996V522.426H352.996H351.996V529.633H352.996ZM352.996 522.426L353.703 521.719L351.301 519.316L350.594 520.023L349.887 520.731L352.289 523.133L352.996 522.426ZM350.594 520.023V519.023H347.391V520.023V521.023H350.594V520.023ZM347.391 520.023L346.681 519.319L344.298 521.722L345.008 522.426L345.718 523.13L348.101 520.728L347.391 520.023ZM345.008 522.426H344.008V531.273H345.008H346.008V522.426H345.008ZM345.008 531.273H344.008C344.008 531.267 344.01 531.244 344.022 531.214C344.035 531.184 344.048 531.17 344.047 531.172L344.754 531.879L345.461 532.586C345.813 532.234 346.008 531.779 346.008 531.273H345.008ZM344.754 531.879L344.047 531.172L340.141 535.078L340.848 535.785L341.555 536.492L345.461 532.586L344.754 531.879ZM340.848 535.785L340.141 535.078C340.139 535.08 340.153 535.066 340.183 535.053C340.213 535.041 340.236 535.039 340.242 535.039V536.039V537.039C340.748 537.039 341.202 536.845 341.555 536.492L340.848 535.785ZM340.242 536.039V535.039H333.758V536.039V537.039H340.242V536.039ZM333.758 536.039V535.039C333.764 535.039 333.787 535.041 333.817 535.053C333.847 535.066 333.861 535.08 333.859 535.078L333.152 535.785L332.445 536.492C332.798 536.845 333.252 537.039 333.758 537.039V536.039ZM333.152 535.785L333.859 535.078L329.953 531.172L329.246 531.879L328.539 532.586L332.445 536.492L333.152 535.785ZM329.246 531.879L329.953 531.172C329.952 531.17 329.965 531.184 329.978 531.214C329.99 531.244 329.992 531.267 329.992 531.273H328.992H327.992C327.992 531.779 328.187 532.234 328.539 532.586L329.246 531.879ZM328.992 531.273H329.992V520.785H328.992H327.992V531.273H328.992ZM328.992 520.785H329.992C329.992 520.806 329.987 520.837 329.973 520.87C329.96 520.902 329.947 520.913 329.953 520.906L329.246 520.199L328.539 519.492C328.199 519.832 327.992 520.276 327.992 520.785H328.992ZM329.246 520.199L329.955 520.905L333.861 516.979L333.152 516.273L332.443 515.568L328.537 519.494L329.246 520.199ZM333.152 516.273L333.859 516.981C333.841 516.999 333.814 517.018 333.782 517.03C333.752 517.042 333.74 517.039 333.758 517.039V516.039V515.039C333.28 515.039 332.812 515.199 332.445 515.566L333.152 516.273ZM333.758 516.039V517.039H338.992V516.039V515.039H333.758V516.039ZM338.992 516.039H337.992V520.023H338.992H339.992V516.039H338.992ZM338.992 520.023V519.023H335.398V520.023V521.023H338.992V520.023ZM335.398 520.023L334.691 519.316L332.289 521.719L332.996 522.426L333.703 523.133L336.106 520.731L335.398 520.023ZM332.996 522.426H331.996V529.633H332.996H333.996V522.426H332.996ZM332.996 529.633L332.289 530.34L334.691 532.742L335.398 532.035L336.106 531.328L333.703 528.926L332.996 529.633ZM335.398 532.035V533.035H338.602V532.035V531.035H335.398V532.035ZM338.602 532.035L339.309 532.742L341.711 530.34L341.004 529.633L340.297 528.926L337.894 531.328L338.602 532.035ZM341.004 529.633H342.004V520.785H341.004H340.004V529.633H341.004ZM341.004 520.785H342.004C342.004 520.781 342.004 520.801 341.991 520.834C341.977 520.869 341.958 520.894 341.945 520.906L341.238 520.199L340.531 519.492C340.175 519.848 340.004 520.303 340.004 520.785H341.004ZM341.238 520.199L341.945 520.906L345.871 516.981L345.164 516.273L344.457 515.566L340.531 519.492L341.238 520.199ZM345.164 516.273L345.871 516.981C345.853 516.999 345.825 517.018 345.794 517.03C345.764 517.042 345.752 517.039 345.77 517.039V516.039V515.039C345.292 515.039 344.824 515.199 344.457 515.566L345.164 516.273ZM345.77 516.039V517.039H352.234V516.039V515.039H345.77V516.039ZM352.234 516.039V517.039C352.252 517.039 352.24 517.042 352.21 517.03C352.179 517.018 352.151 516.999 352.133 516.981L352.84 516.273L353.547 515.566C353.18 515.199 352.712 515.039 352.234 515.039V516.039ZM352.84 516.273L352.133 516.981L356.059 520.906L356.766 520.199L357.473 519.492L353.547 515.566L352.84 516.273ZM356.766 520.199L356.059 520.906C356.046 520.894 356.027 520.869 356.013 520.834C356 520.801 356 520.781 356 520.785H357H358C358 520.303 357.829 519.848 357.473 519.492L356.766 520.199ZM357 520.785H356V531.273H357H358V520.785H357Z" fill="#F64040" mask="url(#path-5-outside-3_305_220)"/>
<rect x="93" y="7" width="83" height="43" rx="21.5" fill="#F64040"/>
<rect x="82" y="1" width="211" height="55" rx="27.5" stroke="white" stroke-width="2"/>
<path d="M100.937 19.2102V18.2727H107.482V19.2102H104.738V27H103.681V19.2102H100.937ZM109.113 27V18.2727H114.381V19.2102H110.17V22.1591H114.108V23.0966H110.17V26.0625H114.449V27H109.113ZM123.308 21H122.251C122.189 20.696 122.079 20.429 121.923 20.1989C121.77 19.9688 121.582 19.7756 121.361 19.6193C121.142 19.4602 120.899 19.3409 120.632 19.2614C120.365 19.1818 120.086 19.142 119.797 19.142C119.268 19.142 118.79 19.2756 118.361 19.5426C117.934 19.8097 117.595 20.2031 117.342 20.723C117.092 21.2429 116.967 21.8807 116.967 22.6364C116.967 23.392 117.092 24.0298 117.342 24.5497C117.595 25.0696 117.934 25.4631 118.361 25.7301C118.79 25.9972 119.268 26.1307 119.797 26.1307C120.086 26.1307 120.365 26.0909 120.632 26.0114C120.899 25.9318 121.142 25.8139 121.361 25.6577C121.582 25.4986 121.77 25.304 121.923 25.0739C122.079 24.8409 122.189 24.5739 122.251 24.2727H123.308C123.229 24.7187 123.084 25.1179 122.873 25.4702C122.663 25.8224 122.402 26.1222 122.089 26.3693C121.777 26.6136 121.426 26.7997 121.037 26.9276C120.65 27.0554 120.237 27.1193 119.797 27.1193C119.052 27.1193 118.39 26.9375 117.811 26.5739C117.231 26.2102 116.775 25.6932 116.443 25.0227C116.111 24.3523 115.944 23.5568 115.944 22.6364C115.944 21.7159 116.111 20.9205 116.443 20.25C116.775 19.5795 117.231 19.0625 117.811 18.6989C118.39 18.3352 119.052 18.1534 119.797 18.1534C120.237 18.1534 120.65 18.2173 121.037 18.3452C121.426 18.473 121.777 18.6605 122.089 18.9077C122.402 19.152 122.663 19.4503 122.873 19.8026C123.084 20.152 123.229 20.5511 123.308 21ZM125.016 27V18.2727H126.073V22.1591H130.726V18.2727H131.783V27H130.726V23.0966H126.073V27H125.016ZM140.819 18.2727V27H139.796L135.041 20.1477H134.955V27H133.899V18.2727H134.921L139.694 25.142H139.779V18.2727H140.819ZM143.991 18.2727V27H142.934V18.2727H143.991ZM153.132 21H152.075C152.013 20.696 151.904 20.429 151.747 20.1989C151.594 19.9688 151.406 19.7756 151.185 19.6193C150.966 19.4602 150.723 19.3409 150.456 19.2614C150.189 19.1818 149.911 19.142 149.621 19.142C149.093 19.142 148.614 19.2756 148.185 19.5426C147.759 19.8097 147.419 20.2031 147.166 20.723C146.916 21.2429 146.791 21.8807 146.791 22.6364C146.791 23.392 146.916 24.0298 147.166 24.5497C147.419 25.0696 147.759 25.4631 148.185 25.7301C148.614 25.9972 149.093 26.1307 149.621 26.1307C149.911 26.1307 150.189 26.0909 150.456 26.0114C150.723 25.9318 150.966 25.8139 151.185 25.6577C151.406 25.4986 151.594 25.304 151.747 25.0739C151.904 24.8409 152.013 24.5739 152.075 24.2727H153.132C153.053 24.7187 152.908 25.1179 152.698 25.4702C152.487 25.8224 152.226 26.1222 151.914 26.3693C151.601 26.6136 151.25 26.7997 150.861 26.9276C150.475 27.0554 150.061 27.1193 149.621 27.1193C148.877 27.1193 148.215 26.9375 147.635 26.5739C147.056 26.2102 146.6 25.6932 146.267 25.0227C145.935 24.3523 145.769 23.5568 145.769 22.6364C145.769 21.7159 145.935 20.9205 146.267 20.25C146.6 19.5795 147.056 19.0625 147.635 18.6989C148.215 18.3352 148.877 18.1534 149.621 18.1534C150.061 18.1534 150.475 18.2173 150.861 18.3452C151.25 18.473 151.601 18.6605 151.914 18.9077C152.226 19.152 152.487 19.4503 152.698 19.8026C152.908 20.152 153.053 20.5511 153.132 21ZM155.198 27H154.09L157.295 18.2727H158.385L161.59 27H160.482L157.874 19.6534H157.806L155.198 27ZM155.607 23.5909H160.073V24.5284H155.607V23.5909ZM162.949 27V18.2727H164.006V26.0625H168.063V27H162.949ZM112.137 39V30.2727H117.404V31.2102H113.194V34.1591H117.131V35.0966H113.194V38.0625H117.472V39H112.137ZM119.667 30.2727L122.258 37.6193H122.36L124.951 30.2727H126.059L122.854 39H121.763L118.559 30.2727H119.667ZM127.418 39V30.2727H132.685V31.2102H128.475V34.1591H132.412V35.0966H128.475V38.0625H132.753V39H127.418ZM141.51 30.2727V39H140.488L135.732 32.1477H135.647V39H134.59V30.2727H135.613L140.385 37.142H140.471V30.2727H141.51ZM143.148 31.2102V30.2727H149.693V31.2102H146.949V39H145.892V31.2102H143.148ZM156.097 32.4545C156.046 32.0227 155.839 31.6875 155.475 31.4489C155.111 31.2102 154.665 31.0909 154.137 31.0909C153.751 31.0909 153.412 31.1534 153.123 31.2784C152.836 31.4034 152.611 31.5753 152.449 31.794C152.29 32.0128 152.211 32.2614 152.211 32.5398C152.211 32.7727 152.266 32.973 152.377 33.1406C152.491 33.3054 152.635 33.4432 152.812 33.554C152.988 33.6619 153.172 33.7514 153.366 33.8224C153.559 33.8906 153.736 33.946 153.898 33.9886L154.785 34.2273C155.012 34.2869 155.265 34.3693 155.543 34.4744C155.824 34.5795 156.093 34.723 156.349 34.9048C156.607 35.0838 156.82 35.3139 156.988 35.5952C157.155 35.8764 157.239 36.2216 157.239 36.6307C157.239 37.1023 157.116 37.5284 156.868 37.9091C156.624 38.2898 156.266 38.5923 155.795 38.8168C155.326 39.0412 154.756 39.1534 154.086 39.1534C153.461 39.1534 152.92 39.0526 152.462 38.8509C152.008 38.6491 151.65 38.3679 151.388 38.0071C151.13 37.6463 150.983 37.2273 150.949 36.75H152.04C152.069 37.0795 152.18 37.3523 152.373 37.5682C152.569 37.7812 152.816 37.9403 153.114 38.0455C153.415 38.1477 153.739 38.1989 154.086 38.1989C154.489 38.1989 154.851 38.1335 155.172 38.0028C155.493 37.8693 155.748 37.6847 155.935 37.4489C156.123 37.2102 156.216 36.9318 156.216 36.6136C156.216 36.3239 156.135 36.0881 155.974 35.9062C155.812 35.7244 155.599 35.5767 155.334 35.4631C155.07 35.3494 154.785 35.25 154.478 35.1648L153.404 34.858C152.722 34.6619 152.182 34.3821 151.785 34.0185C151.387 33.6548 151.188 33.179 151.188 32.5909C151.188 32.1023 151.32 31.6761 151.584 31.3125C151.851 30.946 152.209 30.6619 152.658 30.4602C153.11 30.2557 153.614 30.1534 154.171 30.1534C154.733 30.1534 155.233 30.2543 155.671 30.456C156.108 30.6548 156.455 30.9276 156.711 31.2741C156.969 31.6207 157.106 32.0142 157.12 32.4545H156.097Z" fill="white"/>
<path d="M191.415 16.2727V25H190.392L185.636 18.1477H185.551V25H184.494V16.2727H185.517L190.29 23.142H190.375V16.2727H191.415ZM200.893 20.6364C200.893 21.5568 200.727 22.3523 200.395 23.0227C200.062 23.6932 199.606 24.2102 199.027 24.5739C198.447 24.9375 197.785 25.1193 197.041 25.1193C196.297 25.1193 195.635 24.9375 195.055 24.5739C194.475 24.2102 194.02 23.6932 193.687 23.0227C193.355 22.3523 193.189 21.5568 193.189 20.6364C193.189 19.7159 193.355 18.9205 193.687 18.25C194.02 17.5795 194.475 17.0625 195.055 16.6989C195.635 16.3352 196.297 16.1534 197.041 16.1534C197.785 16.1534 198.447 16.3352 199.027 16.6989C199.606 17.0625 200.062 17.5795 200.395 18.25C200.727 18.9205 200.893 19.7159 200.893 20.6364ZM199.87 20.6364C199.87 19.8807 199.744 19.2429 199.491 18.723C199.241 18.2031 198.902 17.8097 198.473 17.5426C198.047 17.2756 197.569 17.142 197.041 17.142C196.512 17.142 196.034 17.2756 195.605 17.5426C195.179 17.8097 194.839 18.2031 194.586 18.723C194.336 19.2429 194.211 19.8807 194.211 20.6364C194.211 21.392 194.336 22.0298 194.586 22.5497C194.839 23.0696 195.179 23.4631 195.605 23.7301C196.034 23.9972 196.512 24.1307 197.041 24.1307C197.569 24.1307 198.047 23.9972 198.473 23.7301C198.902 23.4631 199.241 23.0696 199.491 22.5497C199.744 22.0298 199.87 21.392 199.87 20.6364ZM209.591 16.2727V25H208.568L203.812 18.1477H203.727V25H202.67V16.2727H203.693L208.466 23.142H208.551V16.2727H209.591ZM215.319 20.1676V21.1051H211.501V20.1676H215.319ZM215.857 17.2102V16.2727H222.402V17.2102H219.658V25H218.601V17.2102H215.857ZM224.033 25V16.2727H229.3V17.2102H225.09V20.1591H229.028V21.0966H225.09V24.0625H229.369V25H224.033ZM238.228 19H237.171C237.109 18.696 236.999 18.429 236.843 18.1989C236.69 17.9688 236.502 17.7756 236.281 17.6193C236.062 17.4602 235.819 17.3409 235.552 17.2614C235.285 17.1818 235.006 17.142 234.717 17.142C234.188 17.142 233.71 17.2756 233.281 17.5426C232.854 17.8097 232.515 18.2031 232.262 18.723C232.012 19.2429 231.887 19.8807 231.887 20.6364C231.887 21.392 232.012 22.0298 232.262 22.5497C232.515 23.0696 232.854 23.4631 233.281 23.7301C233.71 23.9972 234.188 24.1307 234.717 24.1307C235.006 24.1307 235.285 24.0909 235.552 24.0114C235.819 23.9318 236.062 23.8139 236.281 23.6577C236.502 23.4986 236.69 23.304 236.843 23.0739C236.999 22.8409 237.109 22.5739 237.171 22.2727H238.228C238.148 22.7187 238.004 23.1179 237.793 23.4702C237.583 23.8224 237.322 24.1222 237.009 24.3693C236.697 24.6136 236.346 24.7997 235.957 24.9276C235.57 25.0554 235.157 25.1193 234.717 25.1193C233.972 25.1193 233.31 24.9375 232.731 24.5739C232.151 24.2102 231.695 23.6932 231.363 23.0227C231.031 22.3523 230.864 21.5568 230.864 20.6364C230.864 19.7159 231.031 18.9205 231.363 18.25C231.695 17.5795 232.151 17.0625 232.731 16.6989C233.31 16.3352 233.972 16.1534 234.717 16.1534C235.157 16.1534 235.57 16.2173 235.957 16.3452C236.346 16.473 236.697 16.6605 237.009 16.9077C237.322 17.152 237.583 17.4503 237.793 17.8026C238.004 18.152 238.148 18.5511 238.228 19ZM239.936 25V16.2727H240.993V20.1591H245.646V16.2727H246.703V25H245.646V21.0966H240.993V25H239.936ZM255.739 16.2727V25H254.716L249.961 18.1477H249.875V25H248.819V16.2727H249.841L254.614 23.142H254.699V16.2727H255.739ZM258.911 16.2727V25H257.854V16.2727H258.911ZM268.052 19H266.995C266.933 18.696 266.824 18.429 266.667 18.1989C266.514 17.9688 266.326 17.7756 266.105 17.6193C265.886 17.4602 265.643 17.3409 265.376 17.2614C265.109 17.1818 264.831 17.142 264.541 17.142C264.012 17.142 263.534 17.2756 263.105 17.5426C262.679 17.8097 262.339 18.2031 262.086 18.723C261.836 19.2429 261.711 19.8807 261.711 20.6364C261.711 21.392 261.836 22.0298 262.086 22.5497C262.339 23.0696 262.679 23.4631 263.105 23.7301C263.534 23.9972 264.012 24.1307 264.541 24.1307C264.831 24.1307 265.109 24.0909 265.376 24.0114C265.643 23.9318 265.886 23.8139 266.105 23.6577C266.326 23.4986 266.514 23.304 266.667 23.0739C266.824 22.8409 266.933 22.5739 266.995 22.2727H268.052C267.973 22.7187 267.828 23.1179 267.618 23.4702C267.407 23.8224 267.146 24.1222 266.833 24.3693C266.521 24.6136 266.17 24.7997 265.781 24.9276C265.395 25.0554 264.981 25.1193 264.541 25.1193C263.797 25.1193 263.135 24.9375 262.555 24.5739C261.975 24.2102 261.52 23.6932 261.187 23.0227C260.855 22.3523 260.689 21.5568 260.689 20.6364C260.689 19.7159 260.855 18.9205 261.187 18.25C261.52 17.5795 261.975 17.0625 262.555 16.6989C263.135 16.3352 263.797 16.1534 264.541 16.1534C264.981 16.1534 265.395 16.2173 265.781 16.3452C266.17 16.473 266.521 16.6605 266.833 16.9077C267.146 17.152 267.407 17.4503 267.618 17.8026C267.828 18.152 267.973 18.5511 268.052 19ZM270.118 25H269.01L272.214 16.2727H273.305L276.51 25H275.402L272.794 17.6534H272.726L270.118 25ZM270.527 21.5909H274.993V22.5284H270.527V21.5909ZM277.869 25V16.2727H278.926V24.0625H282.983V25H277.869ZM211.137 37V28.2727H216.404V29.2102H212.194V32.1591H216.131V33.0966H212.194V36.0625H216.472V37H211.137ZM218.667 28.2727L221.258 35.6193H221.36L223.951 28.2727H225.059L221.854 37H220.763L217.559 28.2727H218.667ZM226.418 37V28.2727H231.685V29.2102H227.475V32.1591H231.412V33.0966H227.475V36.0625H231.753V37H226.418ZM240.51 28.2727V37H239.488L234.732 30.1477H234.647V37H233.59V28.2727H234.613L239.385 35.142H239.471V28.2727H240.51ZM242.148 29.2102V28.2727H248.693V29.2102H245.949V37H244.892V29.2102H242.148ZM255.097 30.4545C255.046 30.0227 254.839 29.6875 254.475 29.4489C254.111 29.2102 253.665 29.0909 253.137 29.0909C252.751 29.0909 252.412 29.1534 252.123 29.2784C251.836 29.4034 251.611 29.5753 251.449 29.794C251.29 30.0128 251.211 30.2614 251.211 30.5398C251.211 30.7727 251.266 30.973 251.377 31.1406C251.491 31.3054 251.635 31.4432 251.812 31.554C251.988 31.6619 252.172 31.7514 252.366 31.8224C252.559 31.8906 252.736 31.946 252.898 31.9886L253.785 32.2273C254.012 32.2869 254.265 32.3693 254.543 32.4744C254.824 32.5795 255.093 32.723 255.349 32.9048C255.607 33.0838 255.82 33.3139 255.988 33.5952C256.155 33.8764 256.239 34.2216 256.239 34.6307C256.239 35.1023 256.116 35.5284 255.868 35.9091C255.624 36.2898 255.266 36.5923 254.795 36.8168C254.326 37.0412 253.756 37.1534 253.086 37.1534C252.461 37.1534 251.92 37.0526 251.462 36.8509C251.008 36.6491 250.65 36.3679 250.388 36.0071C250.13 35.6463 249.983 35.2273 249.949 34.75H251.04C251.069 35.0795 251.18 35.3523 251.373 35.5682C251.569 35.7812 251.816 35.9403 252.114 36.0455C252.415 36.1477 252.739 36.1989 253.086 36.1989C253.489 36.1989 253.851 36.1335 254.172 36.0028C254.493 35.8693 254.748 35.6847 254.935 35.4489C255.123 35.2102 255.216 34.9318 255.216 34.6136C255.216 34.3239 255.135 34.0881 254.974 33.9062C254.812 33.7244 254.599 33.5767 254.334 33.4631C254.07 33.3494 253.785 33.25 253.478 33.1648L252.404 32.858C251.722 32.6619 251.182 32.3821 250.785 32.0185C250.387 31.6548 250.188 31.179 250.188 30.5909C250.188 30.1023 250.32 29.6761 250.584 29.3125C250.851 28.946 251.209 28.6619 251.658 28.4602C252.11 28.2557 252.614 28.1534 253.171 28.1534C253.733 28.1534 254.233 28.2543 254.671 28.456C255.108 28.6548 255.455 28.9276 255.711 29.2741C255.969 29.6207 256.106 30.0142 256.12 30.4545H255.097Z" fill="white"/>
</svg>
