<svg width="1778" height="926" viewBox="0 0 1778 926" fill="none" xmlns="http://www.w3.org/2000/svg">
<mask id="path-1-inside-1_121_53" fill="white">
<path d="M1763 0C1771.28 0 1778 6.71573 1778 15V911C1778 919.284 1771.28 926 1763 926H15C6.71573 926 0 919.284 0 911V15C0 6.71573 6.71573 0 15 0H496C520.301 0 540 19.6995 540 44C540 63.8823 556.118 80 576 80H1201C1220.88 80 1237 63.8823 1237 44C1237 19.6995 1256.7 0 1281 0H1763Z"/>
</mask>
<path d="M540 44L538 44L540 44ZM1237 44H1239H1237ZM1763 0V2C1770.18 2 1776 7.8203 1776 15H1778H1780C1780 5.61116 1772.39 -2 1763 -2V0ZM1778 15H1776V911H1778H1780V15H1778ZM1778 911H1776C1776 918.18 1770.18 924 1763 924V926V928C1772.39 928 1780 920.389 1780 911H1778ZM1763 926V924H15V926V928H1763V926ZM15 926V924C7.8203 924 2 918.18 2 911H0H-2C-2 920.389 5.61116 928 15 928V926ZM0 911H2V15H0H-2V911H0ZM0 15H2C2 7.8203 7.8203 2 15 2V0V-2C5.61116 -2 -2 5.61116 -2 15H0ZM15 0V2H496V0V-2H15V0ZM540 44L538 44C538 64.9868 555.013 82 576 82V80V78C557.222 78 542 62.7777 542 44L540 44ZM576 80V82H1201V80V78H576V80ZM1201 80V82C1221.99 82 1239 64.9868 1239 44L1237 44L1235 44C1235 62.7777 1219.78 78 1201 78V80ZM1281 0V2H1763V0V-2H1281V0ZM1237 44H1239C1239 20.804 1257.8 2 1281 2V0V-2C1255.59 -2 1235 18.5949 1235 44H1237ZM496 0V2C519.196 2 538 20.804 538 44H540H542C542 18.5949 521.405 -2 496 -2V0Z" fill="#F64040" mask="url(#path-1-inside-1_121_53)"/>
</svg>
