<svg width="1920" height="1080" viewBox="0 0 1920 1080" fill="none" xmlns="http://www.w3.org/2000/svg" xmlns:xlink="http://www.w3.org/1999/xlink">
<rect width="1920" height="1080" fill="black"/>
<rect width="1920" height="1080"/>
<mask id="path-1-inside-1_115_2" fill="white">
<path d="M1834 74C1842.28 74 1849 80.7157 1849 89V985C1849 993.284 1842.28 1000 1834 1000H86C77.7157 1000 71 993.284 71 985V89C71 80.7157 77.7157 74 86 74H567C591.301 74 611 93.6995 611 118V118C611 137.882 627.118 154 647 154H1272C1291.88 154 1308 137.882 1308 118V118C1308 93.6995 1327.7 74 1352 74H1834Z"/>
</mask>
<path d="M1834 74V76C1841.18 76 1847 81.8203 1847 89H1849H1851C1851 79.6112 1843.39 72 1834 72V74ZM1849 89H1847V985H1849H1851V89H1849ZM1849 985H1847C1847 992.18 1841.18 998 1834 998V1000V1002C1843.39 1002 1851 994.389 1851 985H1849ZM1834 1000V998H86V1000V1002H1834V1000ZM86 1000V998C78.8203 998 73 992.18 73 985H71H69C69 994.389 76.6112 1002 86 1002V1000ZM71 985H73V89H71H69V985H71ZM71 89H73C73 81.8203 78.8203 76 86 76V74V72C76.6112 72 69 79.6112 69 89H71ZM86 74V76H567V74V72H86V74ZM611 118L609 118C609 138.987 626.013 156 647 156V154V152C628.222 152 613 136.778 613 118L611 118ZM647 154V156H1272V154V152H647V154ZM1272 154V156C1292.99 156 1310 138.987 1310 118L1308 118L1306 118C1306 136.778 1290.78 152 1272 152V154ZM1352 74V76H1834V74V72H1352V74ZM1308 118H1310C1310 94.804 1328.8 76 1352 76V74V72C1326.59 72 1306 92.5949 1306 118H1308ZM567 74V76C590.196 76 609 94.804 609 118H611H613C613 92.5949 592.405 72 567 72V74Z" fill="#F64040" mask="url(#path-1-inside-1_115_2)"/>
<rect x="652" y="35" width="615" height="85" rx="35" stroke="white" stroke-width="2"/>
<mask id="path-4-outside-2_115_2" maskUnits="userSpaceOnUse" x="73" y="116" width="94" height="458" fill="black">
<rect fill="white" x="73" y="116" width="94" height="458"/>
<path d="M74 117.627H165.025V182.627H152.013V130.64H125.987V169.678H112.975V130.64H87.0127V182.627H74V117.627ZM99.2002 196.401C99.7503 195.851 100.406 195.576 101.168 195.576H165.025V208.589H106.5L87.0127 228.076L106.5 247.627H165.025V260.576H101.168C100.364 260.576 99.708 260.322 99.2002 259.814L74 234.614V221.602L99.2002 196.401ZM74 273.525H165.025V338.525H152.013V286.538H125.987V325.576H112.975V286.538H87.0127V338.525H74V273.525ZM74 351.475H165.025V364.487H142.237V371.025L109.737 403.525H165.025V416.475H74V403.525H96.7246V396.987L129.225 364.487H74V351.475ZM74 455.449H152.013V429.424H165.025V494.424H152.013V468.462H74V455.449ZM74 522.861C74 522.057 74.2539 521.401 74.7617 520.894L87.5205 508.198C88.0706 507.648 88.7266 507.373 89.4883 507.373H106.5V520.386H94.8203L87.0127 528.193V551.616L94.8203 559.424H105.23L112.975 551.616V522.861C112.975 522.1 113.25 521.444 113.8 520.894L126.495 508.198C127.045 507.648 127.701 507.373 128.463 507.373H149.537C150.299 507.373 150.955 507.648 151.505 508.198L164.2 520.894C164.75 521.444 165.025 522.1 165.025 522.861V556.948C165.025 557.668 164.75 558.302 164.2 558.853L151.505 571.611C150.997 572.119 150.341 572.373 149.537 572.373H132.525V559.424H144.205L152.013 551.616V528.193L144.205 520.386H133.795L125.987 528.193V556.948C125.987 557.71 125.733 558.345 125.226 558.853L112.467 571.611C111.959 572.119 111.303 572.373 110.499 572.373H89.4883C88.6842 572.373 88.0283 572.119 87.5205 571.611L74.7617 558.853C74.2539 558.345 74 557.71 74 556.948V522.861Z"/>
</mask>
<path d="M74 117.627V116.627H73V117.627H74ZM165.025 117.627H166.025V116.627H165.025V117.627ZM165.025 182.627V183.627H166.025V182.627H165.025ZM152.013 182.627H151.013V183.627H152.013V182.627ZM152.013 130.64H153.013V129.64H152.013V130.64ZM125.987 130.64V129.64H124.987V130.64H125.987ZM125.987 169.678V170.678H126.987V169.678H125.987ZM112.975 169.678H111.975V170.678H112.975V169.678ZM112.975 130.64H113.975V129.64H112.975V130.64ZM87.0127 130.64V129.64H86.0127V130.64H87.0127ZM87.0127 182.627V183.627H88.0127V182.627H87.0127ZM74 182.627H73V183.627H74V182.627ZM74 117.627V118.627H165.025V117.627V116.627H74V117.627ZM165.025 117.627H164.025V182.627H165.025H166.025V117.627H165.025ZM165.025 182.627V181.627H152.013V182.627V183.627H165.025V182.627ZM152.013 182.627H153.013V130.64H152.013H151.013V182.627H152.013ZM152.013 130.64V129.64H125.987V130.64V131.64H152.013V130.64ZM125.987 130.64H124.987V169.678H125.987H126.987V130.64H125.987ZM125.987 169.678V168.678H112.975V169.678V170.678H125.987V169.678ZM112.975 169.678H113.975V130.64H112.975H111.975V169.678H112.975ZM112.975 130.64V129.64H87.0127V130.64V131.64H112.975V130.64ZM87.0127 130.64H86.0127V182.627H87.0127H88.0127V130.64H87.0127ZM87.0127 182.627V181.627H74V182.627V183.627H87.0127V182.627ZM74 182.627H75V117.627H74H73V182.627H74ZM99.2002 196.401L98.4931 195.694L99.2002 196.401ZM165.025 195.576H166.025V194.576H165.025V195.576ZM165.025 208.589V209.589H166.025V208.589H165.025ZM106.5 208.589V207.589H106.086L105.793 207.882L106.5 208.589ZM87.0127 228.076L86.3056 227.369L85.5996 228.075L86.3044 228.782L87.0127 228.076ZM106.5 247.627L105.792 248.333L106.085 248.627H106.5V247.627ZM165.025 247.627H166.025V246.627H165.025V247.627ZM165.025 260.576V261.576H166.025V260.576H165.025ZM74 234.614H73V235.028L73.2929 235.321L74 234.614ZM74 221.602L73.2929 220.894L73 221.187V221.602H74ZM99.2002 196.401L99.9073 197.108C100.274 196.741 100.678 196.576 101.168 196.576V195.576V194.576C100.135 194.576 99.2263 194.961 98.4931 195.694L99.2002 196.401ZM101.168 195.576V196.576H165.025V195.576V194.576H101.168V195.576ZM165.025 195.576H164.025V208.589H165.025H166.025V195.576H165.025ZM165.025 208.589V207.589H106.5V208.589V209.589H165.025V208.589ZM106.5 208.589L105.793 207.882L86.3056 227.369L87.0127 228.076L87.7198 228.783L107.207 209.296L106.5 208.589ZM87.0127 228.076L86.3044 228.782L105.792 248.333L106.5 247.627L107.208 246.921L87.721 227.37L87.0127 228.076ZM106.5 247.627V248.627H165.025V247.627V246.627H106.5V247.627ZM165.025 247.627H164.025V260.576H165.025H166.025V247.627H165.025ZM165.025 260.576V259.576H101.168V260.576V261.576H165.025V260.576ZM101.168 260.576V259.576C100.594 259.576 100.204 259.404 99.9073 259.107L99.2002 259.814L98.4931 260.522C99.2116 261.24 100.133 261.576 101.168 261.576V260.576ZM99.2002 259.814L99.9073 259.107L74.7071 233.907L74 234.614L73.2929 235.321L98.4931 260.522L99.2002 259.814ZM74 234.614H75V221.602H74H73V234.614H74ZM74 221.602L74.7071 222.309L99.9073 197.108L99.2002 196.401L98.4931 195.694L73.2929 220.894L74 221.602ZM74 273.525V272.525H73V273.525H74ZM165.025 273.525H166.025V272.525H165.025V273.525ZM165.025 338.525V339.525H166.025V338.525H165.025ZM152.013 338.525H151.013V339.525H152.013V338.525ZM152.013 286.538H153.013V285.538H152.013V286.538ZM125.987 286.538V285.538H124.987V286.538H125.987ZM125.987 325.576V326.576H126.987V325.576H125.987ZM112.975 325.576H111.975V326.576H112.975V325.576ZM112.975 286.538H113.975V285.538H112.975V286.538ZM87.0127 286.538V285.538H86.0127V286.538H87.0127ZM87.0127 338.525V339.525H88.0127V338.525H87.0127ZM74 338.525H73V339.525H74V338.525ZM74 273.525V274.525H165.025V273.525V272.525H74V273.525ZM165.025 273.525H164.025V338.525H165.025H166.025V273.525H165.025ZM165.025 338.525V337.525H152.013V338.525V339.525H165.025V338.525ZM152.013 338.525H153.013V286.538H152.013H151.013V338.525H152.013ZM152.013 286.538V285.538H125.987V286.538V287.538H152.013V286.538ZM125.987 286.538H124.987V325.576H125.987H126.987V286.538H125.987ZM125.987 325.576V324.576H112.975V325.576V326.576H125.987V325.576ZM112.975 325.576H113.975V286.538H112.975H111.975V325.576H112.975ZM112.975 286.538V285.538H87.0127V286.538V287.538H112.975V286.538ZM87.0127 286.538H86.0127V338.525H87.0127H88.0127V286.538H87.0127ZM87.0127 338.525V337.525H74V338.525V339.525H87.0127V338.525ZM74 338.525H75V273.525H74H73V338.525H74ZM74 351.475V350.475H73V351.475H74ZM165.025 351.475H166.025V350.475H165.025V351.475ZM165.025 364.487V365.487H166.025V364.487H165.025ZM142.237 364.487V363.487H141.237V364.487H142.237ZM142.237 371.025L142.944 371.732L143.237 371.44V371.025H142.237ZM109.737 403.525L109.03 402.818L107.323 404.525H109.737V403.525ZM165.025 403.525H166.025V402.525H165.025V403.525ZM165.025 416.475V417.475H166.025V416.475H165.025ZM74 416.475H73V417.475H74V416.475ZM74 403.525V402.525H73V403.525H74ZM96.7246 403.525V404.525H97.7246V403.525H96.7246ZM96.7246 396.987L96.0175 396.28L95.7246 396.573V396.987H96.7246ZM129.225 364.487L129.932 365.194L131.639 363.487H129.225V364.487ZM74 364.487H73V365.487H74V364.487ZM74 351.475V352.475H165.025V351.475V350.475H74V351.475ZM165.025 351.475H164.025V364.487H165.025H166.025V351.475H165.025ZM165.025 364.487V363.487H142.237V364.487V365.487H165.025V364.487ZM142.237 364.487H141.237V371.025H142.237H143.237V364.487H142.237ZM142.237 371.025L141.53 370.318L109.03 402.818L109.737 403.525L110.444 404.232L142.944 371.732L142.237 371.025ZM109.737 403.525V404.525H165.025V403.525V402.525H109.737V403.525ZM165.025 403.525H164.025V416.475H165.025H166.025V403.525H165.025ZM165.025 416.475V415.475H74V416.475V417.475H165.025V416.475ZM74 416.475H75V403.525H74H73V416.475H74ZM74 403.525V404.525H96.7246V403.525V402.525H74V403.525ZM96.7246 403.525H97.7246V396.987H96.7246H95.7246V403.525H96.7246ZM96.7246 396.987L97.4317 397.694L129.932 365.194L129.225 364.487L128.518 363.78L96.0175 396.28L96.7246 396.987ZM129.225 364.487V363.487H74V364.487V365.487H129.225V364.487ZM74 364.487H75V351.475H74H73V364.487H74ZM74 455.449V454.449H73V455.449H74ZM152.013 455.449V456.449H153.013V455.449H152.013ZM152.013 429.424V428.424H151.013V429.424H152.013ZM165.025 429.424H166.025V428.424H165.025V429.424ZM165.025 494.424V495.424H166.025V494.424H165.025ZM152.013 494.424H151.013V495.424H152.013V494.424ZM152.013 468.462H153.013V467.462H152.013V468.462ZM74 468.462H73V469.462H74V468.462ZM74 455.449V456.449H152.013V455.449V454.449H74V455.449ZM152.013 455.449H153.013V429.424H152.013H151.013V455.449H152.013ZM152.013 429.424V430.424H165.025V429.424V428.424H152.013V429.424ZM165.025 429.424H164.025V494.424H165.025H166.025V429.424H165.025ZM165.025 494.424V493.424H152.013V494.424V495.424H165.025V494.424ZM152.013 494.424H153.013V468.462H152.013H151.013V494.424H152.013ZM152.013 468.462V467.462H74V468.462V469.462H152.013V468.462ZM74 468.462H75V455.449H74H73V468.462H74ZM74.7617 520.894L74.0564 520.185L74.0546 520.186L74.7617 520.894ZM87.5205 508.198L88.2259 508.907L88.2276 508.905L87.5205 508.198ZM106.5 507.373H107.5V506.373H106.5V507.373ZM106.5 520.386V521.386H107.5V520.386H106.5ZM94.8203 520.386V519.386H94.4061L94.1132 519.679L94.8203 520.386ZM87.0127 528.193L86.3056 527.486L86.0127 527.779V528.193H87.0127ZM87.0127 551.616H86.0127V552.03L86.3056 552.323L87.0127 551.616ZM94.8203 559.424L94.1132 560.131L94.4061 560.424H94.8203V559.424ZM105.23 559.424V560.424H105.647L105.94 560.128L105.23 559.424ZM112.975 551.616L113.685 552.32L113.975 552.028V551.616H112.975ZM113.8 520.894L113.093 520.186L113.8 520.894ZM126.495 508.198L127.202 508.905L126.495 508.198ZM151.505 508.198L152.212 507.491L151.505 508.198ZM164.2 520.894L163.493 521.601L164.2 520.894ZM164.2 558.853L163.493 558.145L163.491 558.147L164.2 558.853ZM151.505 571.611L152.212 572.318L152.214 572.317L151.505 571.611ZM132.525 572.373H131.525V573.373H132.525V572.373ZM132.525 559.424V558.424H131.525V559.424H132.525ZM144.205 559.424V560.424H144.619L144.912 560.131L144.205 559.424ZM152.013 551.616L152.72 552.323L153.013 552.03V551.616H152.013ZM152.013 528.193H153.013V527.779L152.72 527.486L152.013 528.193ZM144.205 520.386L144.912 519.679L144.619 519.386H144.205V520.386ZM133.795 520.386V519.386H133.381L133.088 519.679L133.795 520.386ZM125.987 528.193L125.28 527.486L124.987 527.779V528.193H125.987ZM74 522.861H75C75 522.288 75.1717 521.898 75.4688 521.601L74.7617 520.894L74.0546 520.186C73.3361 520.905 73 521.827 73 522.861H74ZM74.7617 520.894L75.4671 521.602L88.2258 508.907L87.5205 508.198L86.8152 507.489L74.0564 520.185L74.7617 520.894ZM87.5205 508.198L88.2276 508.905C88.5947 508.538 88.9981 508.373 89.4883 508.373V507.373V506.373C88.4551 506.373 87.5466 506.758 86.8134 507.491L87.5205 508.198ZM89.4883 507.373V508.373H106.5V507.373V506.373H89.4883V507.373ZM106.5 507.373H105.5V520.386H106.5H107.5V507.373H106.5ZM106.5 520.386V519.386H94.8203V520.386V521.386H106.5V520.386ZM94.8203 520.386L94.1132 519.679L86.3056 527.486L87.0127 528.193L87.7198 528.9L95.5274 521.093L94.8203 520.386ZM87.0127 528.193H86.0127V551.616H87.0127H88.0127V528.193H87.0127ZM87.0127 551.616L86.3056 552.323L94.1132 560.131L94.8203 559.424L95.5274 558.717L87.7198 550.909L87.0127 551.616ZM94.8203 559.424V560.424H105.23V559.424V558.424H94.8203V559.424ZM105.23 559.424L105.94 560.128L113.685 552.32L112.975 551.616L112.265 550.912L104.52 558.72L105.23 559.424ZM112.975 551.616H113.975V522.861H112.975H111.975V551.616H112.975ZM112.975 522.861H113.975C113.975 522.371 114.14 521.968 114.507 521.601L113.8 520.894L113.093 520.186C112.36 520.92 111.975 521.828 111.975 522.861H112.975ZM113.8 520.894L114.507 521.601L127.202 508.905L126.495 508.198L125.788 507.491L113.093 520.186L113.8 520.894ZM126.495 508.198L127.202 508.905C127.569 508.538 127.973 508.373 128.463 508.373V507.373V506.373C127.43 506.373 126.521 506.758 125.788 507.491L126.495 508.198ZM128.463 507.373V508.373H149.537V507.373V506.373H128.463V507.373ZM149.537 507.373V508.373C150.027 508.373 150.431 508.538 150.798 508.905L151.505 508.198L152.212 507.491C151.479 506.758 150.57 506.373 149.537 506.373V507.373ZM151.505 508.198L150.798 508.905L163.493 521.601L164.2 520.894L164.907 520.186L152.212 507.491L151.505 508.198ZM164.2 520.894L163.493 521.601C163.86 521.968 164.025 522.371 164.025 522.861H165.025H166.025C166.025 521.828 165.64 520.92 164.907 520.186L164.2 520.894ZM165.025 522.861H164.025V556.948H165.025H166.025V522.861H165.025ZM165.025 556.948H164.025C164.025 557.379 163.873 557.766 163.493 558.145L164.2 558.853L164.907 559.56C165.628 558.839 166.025 557.956 166.025 556.948H165.025ZM164.2 558.853L163.491 558.147L150.796 570.906L151.505 571.611L152.214 572.317L164.909 559.558L164.2 558.853ZM151.505 571.611L150.798 570.904C150.501 571.201 150.111 571.373 149.537 571.373V572.373V573.373C150.572 573.373 151.493 573.037 152.212 572.318L151.505 571.611ZM149.537 572.373V571.373H132.525V572.373V573.373H149.537V572.373ZM132.525 572.373H133.525V559.424H132.525H131.525V572.373H132.525ZM132.525 559.424V560.424H144.205V559.424V558.424H132.525V559.424ZM144.205 559.424L144.912 560.131L152.72 552.323L152.013 551.616L151.306 550.909L143.498 558.717L144.205 559.424ZM152.013 551.616H153.013V528.193H152.013H151.013V551.616H152.013ZM152.013 528.193L152.72 527.486L144.912 519.679L144.205 520.386L143.498 521.093L151.306 528.9L152.013 528.193ZM144.205 520.386V519.386H133.795V520.386V521.386H144.205V520.386ZM133.795 520.386L133.088 519.679L125.28 527.486L125.987 528.193L126.694 528.9L134.502 521.093L133.795 520.386ZM125.987 528.193H124.987V556.948H125.987H126.987V528.193H125.987ZM125.987 556.948H124.987C124.987 557.463 124.826 557.837 124.518 558.145L125.226 558.853L125.933 559.56C126.64 558.852 126.987 557.957 126.987 556.948H125.987ZM125.226 558.853L124.518 558.145L111.76 570.904L112.467 571.611L113.174 572.318L125.933 559.56L125.226 558.853ZM112.467 571.611L111.76 570.904C111.463 571.201 111.073 571.373 110.499 571.373V572.373V573.373C111.534 573.373 112.455 573.037 113.174 572.318L112.467 571.611ZM110.499 572.373V571.373H89.4883V572.373V573.373H110.499V572.373ZM89.4883 572.373V571.373C88.9148 571.373 88.5247 571.201 88.2276 570.904L87.5205 571.611L86.8134 572.318C87.5319 573.037 88.4537 573.373 89.4883 573.373V572.373ZM87.5205 571.611L88.2276 570.904L75.4688 558.145L74.7617 558.853L74.0546 559.56L86.8134 572.318L87.5205 571.611ZM74.7617 558.853L75.4688 558.145C75.1608 557.837 75 557.463 75 556.948H74H73C73 557.957 73.347 558.852 74.0546 559.56L74.7617 558.853ZM74 556.948H75V522.861H74H73V556.948H74Z" fill="#F64040" mask="url(#path-4-outside-2_115_2)"/>
<mask id="path-6-outside-3_115_2" maskUnits="userSpaceOnUse" x="1753" y="497" width="94" height="458" fill="black">
<rect fill="white" x="1753" y="497" width="94" height="458"/>
<path d="M1846 953.373H1754.97V888.373H1767.99V940.36H1794.01V901.322H1807.03V940.36H1832.99V888.373H1846V953.373ZM1820.8 874.599C1820.25 875.149 1819.59 875.424 1818.83 875.424H1754.97V862.411H1813.5L1832.99 842.924L1813.5 823.373H1754.97V810.424H1818.83C1819.64 810.424 1820.29 810.678 1820.8 811.186L1846 836.386V849.398L1820.8 874.599ZM1846 797.475H1754.97V732.475H1767.99V784.462H1794.01V745.424H1807.03V784.462H1832.99V732.475H1846V797.475ZM1846 719.525H1754.97V706.513H1777.76V699.975L1810.26 667.475H1754.97V654.525H1846V667.475H1823.28V674.013L1790.78 706.513H1846V719.525ZM1846 615.551H1767.99V641.576H1754.97V576.576H1767.99V602.538H1846V615.551ZM1846 548.139C1846 548.943 1845.75 549.599 1845.24 550.106L1832.48 562.802C1831.93 563.352 1831.27 563.627 1830.51 563.627H1813.5V550.614H1825.18L1832.99 542.807V519.384L1825.18 511.576H1814.77L1807.03 519.384V548.139C1807.03 548.9 1806.75 549.556 1806.2 550.106L1793.5 562.802C1792.95 563.352 1792.3 563.627 1791.54 563.627H1770.46C1769.7 563.627 1769.05 563.352 1768.5 562.802L1755.8 550.106C1755.25 549.556 1754.97 548.9 1754.97 548.139V514.052C1754.97 513.332 1755.25 512.698 1755.8 512.147L1768.5 499.389C1769 498.881 1769.66 498.627 1770.46 498.627H1787.47V511.576H1775.79L1767.99 519.384V542.807L1775.79 550.614H1786.21L1794.01 542.807V514.052C1794.01 513.29 1794.27 512.655 1794.77 512.147L1807.53 499.389C1808.04 498.881 1808.7 498.627 1809.5 498.627H1830.51C1831.32 498.627 1831.97 498.881 1832.48 499.389L1845.24 512.147C1845.75 512.655 1846 513.29 1846 514.052V548.139Z"/>
</mask>
<path d="M1846 953.373V954.373H1847V953.373H1846ZM1754.97 953.373H1753.97V954.373H1754.97V953.373ZM1754.97 888.373V887.373H1753.97V888.373H1754.97ZM1767.99 888.373H1768.99V887.373H1767.99V888.373ZM1767.99 940.36H1766.99V941.36H1767.99V940.36ZM1794.01 940.36V941.36H1795.01V940.36H1794.01ZM1794.01 901.322V900.322H1793.01V901.322H1794.01ZM1807.03 901.322H1808.03V900.322H1807.03V901.322ZM1807.03 940.36H1806.03V941.36H1807.03V940.36ZM1832.99 940.36V941.36H1833.99V940.36H1832.99ZM1832.99 888.373V887.373H1831.99V888.373H1832.99ZM1846 888.373H1847V887.373H1846V888.373ZM1846 953.373V952.373H1754.97V953.373V954.373H1846V953.373ZM1754.97 953.373H1755.97V888.373H1754.97H1753.97V953.373H1754.97ZM1754.97 888.373V889.373H1767.99V888.373V887.373H1754.97V888.373ZM1767.99 888.373H1766.99V940.36H1767.99H1768.99V888.373H1767.99ZM1767.99 940.36V941.36H1794.01V940.36V939.36H1767.99V940.36ZM1794.01 940.36H1795.01V901.322H1794.01H1793.01V940.36H1794.01ZM1794.01 901.322V902.322H1807.03V901.322V900.322H1794.01V901.322ZM1807.03 901.322H1806.03V940.36H1807.03H1808.03V901.322H1807.03ZM1807.03 940.36V941.36H1832.99V940.36V939.36H1807.03V940.36ZM1832.99 940.36H1833.99V888.373H1832.99H1831.99V940.36H1832.99ZM1832.99 888.373V889.373H1846V888.373V887.373H1832.99V888.373ZM1846 888.373H1845V953.373H1846H1847V888.373H1846ZM1820.8 874.599L1821.51 875.306L1820.8 874.599ZM1754.97 875.424H1753.97V876.424H1754.97V875.424ZM1754.97 862.411V861.411H1753.97V862.411H1754.97ZM1813.5 862.411V863.411H1813.91L1814.21 863.118L1813.5 862.411ZM1832.99 842.924L1833.69 843.631L1834.4 842.925L1833.7 842.218L1832.99 842.924ZM1813.5 823.373L1814.21 822.667L1813.92 822.373H1813.5V823.373ZM1754.97 823.373H1753.97V824.373H1754.97V823.373ZM1754.97 810.424V809.424H1753.97V810.424H1754.97ZM1846 836.386H1847V835.972L1846.71 835.679L1846 836.386ZM1846 849.398L1846.71 850.106L1847 849.813V849.398H1846ZM1820.8 874.599L1820.09 873.892C1819.73 874.259 1819.32 874.424 1818.83 874.424V875.424V876.424C1819.87 876.424 1820.77 876.039 1821.51 875.306L1820.8 874.599ZM1818.83 875.424V874.424H1754.97V875.424V876.424H1818.83V875.424ZM1754.97 875.424H1755.97V862.411H1754.97H1753.97V875.424H1754.97ZM1754.97 862.411V863.411H1813.5V862.411V861.411H1754.97V862.411ZM1813.5 862.411L1814.21 863.118L1833.69 843.631L1832.99 842.924L1832.28 842.217L1812.79 861.704L1813.5 862.411ZM1832.99 842.924L1833.7 842.218L1814.21 822.667L1813.5 823.373L1812.79 824.079L1832.28 843.63L1832.99 842.924ZM1813.5 823.373V822.373H1754.97V823.373V824.373H1813.5V823.373ZM1754.97 823.373H1755.97V810.424H1754.97H1753.97V823.373H1754.97ZM1754.97 810.424V811.424H1818.83V810.424V809.424H1754.97V810.424ZM1818.83 810.424V811.424C1819.41 811.424 1819.8 811.596 1820.09 811.893L1820.8 811.186L1821.51 810.478C1820.79 809.76 1819.87 809.424 1818.83 809.424V810.424ZM1820.8 811.186L1820.09 811.893L1845.29 837.093L1846 836.386L1846.71 835.679L1821.51 810.478L1820.8 811.186ZM1846 836.386H1845V849.398H1846H1847V836.386H1846ZM1846 849.398L1845.29 848.691L1820.09 873.892L1820.8 874.599L1821.51 875.306L1846.71 850.106L1846 849.398ZM1846 797.475V798.475H1847V797.475H1846ZM1754.97 797.475H1753.97V798.475H1754.97V797.475ZM1754.97 732.475V731.475H1753.97V732.475H1754.97ZM1767.99 732.475H1768.99V731.475H1767.99V732.475ZM1767.99 784.462H1766.99V785.462H1767.99V784.462ZM1794.01 784.462V785.462H1795.01V784.462H1794.01ZM1794.01 745.424V744.424H1793.01V745.424H1794.01ZM1807.03 745.424H1808.03V744.424H1807.03V745.424ZM1807.03 784.462H1806.03V785.462H1807.03V784.462ZM1832.99 784.462V785.462H1833.99V784.462H1832.99ZM1832.99 732.475V731.475H1831.99V732.475H1832.99ZM1846 732.475H1847V731.475H1846V732.475ZM1846 797.475V796.475H1754.97V797.475V798.475H1846V797.475ZM1754.97 797.475H1755.97V732.475H1754.97H1753.97V797.475H1754.97ZM1754.97 732.475V733.475H1767.99V732.475V731.475H1754.97V732.475ZM1767.99 732.475H1766.99V784.462H1767.99H1768.99V732.475H1767.99ZM1767.99 784.462V785.462H1794.01V784.462V783.462H1767.99V784.462ZM1794.01 784.462H1795.01V745.424H1794.01H1793.01V784.462H1794.01ZM1794.01 745.424V746.424H1807.03V745.424V744.424H1794.01V745.424ZM1807.03 745.424H1806.03V784.462H1807.03H1808.03V745.424H1807.03ZM1807.03 784.462V785.462H1832.99V784.462V783.462H1807.03V784.462ZM1832.99 784.462H1833.99V732.475H1832.99H1831.99V784.462H1832.99ZM1832.99 732.475V733.475H1846V732.475V731.475H1832.99V732.475ZM1846 732.475H1845V797.475H1846H1847V732.475H1846ZM1846 719.525V720.525H1847V719.525H1846ZM1754.97 719.525H1753.97V720.525H1754.97V719.525ZM1754.97 706.513V705.513H1753.97V706.513H1754.97ZM1777.76 706.513V707.513H1778.76V706.513H1777.76ZM1777.76 699.975L1777.06 699.268L1776.76 699.56V699.975H1777.76ZM1810.26 667.475L1810.97 668.182L1812.68 666.475H1810.26V667.475ZM1754.97 667.475H1753.97V668.475H1754.97V667.475ZM1754.97 654.525V653.525H1753.97V654.525H1754.97ZM1846 654.525H1847V653.525H1846V654.525ZM1846 667.475V668.475H1847V667.475H1846ZM1823.28 667.475V666.475H1822.28V667.475H1823.28ZM1823.28 674.013L1823.98 674.72L1824.28 674.427V674.013H1823.28ZM1790.78 706.513L1790.07 705.806L1788.36 707.513H1790.78V706.513ZM1846 706.513H1847V705.513H1846V706.513ZM1846 719.525V718.525H1754.97V719.525V720.525H1846V719.525ZM1754.97 719.525H1755.97V706.513H1754.97H1753.97V719.525H1754.97ZM1754.97 706.513V707.513H1777.76V706.513V705.513H1754.97V706.513ZM1777.76 706.513H1778.76V699.975H1777.76H1776.76V706.513H1777.76ZM1777.76 699.975L1778.47 700.682L1810.97 668.182L1810.26 667.475L1809.56 666.768L1777.06 699.268L1777.76 699.975ZM1810.26 667.475V666.475H1754.97V667.475V668.475H1810.26V667.475ZM1754.97 667.475H1755.97V654.525H1754.97H1753.97V667.475H1754.97ZM1754.97 654.525V655.525H1846V654.525V653.525H1754.97V654.525ZM1846 654.525H1845V667.475H1846H1847V654.525H1846ZM1846 667.475V666.475H1823.28V667.475V668.475H1846V667.475ZM1823.28 667.475H1822.28V674.013H1823.28H1824.28V667.475H1823.28ZM1823.28 674.013L1822.57 673.306L1790.07 705.806L1790.78 706.513L1791.48 707.22L1823.98 674.72L1823.28 674.013ZM1790.78 706.513V707.513H1846V706.513V705.513H1790.78V706.513ZM1846 706.513H1845V719.525H1846H1847V706.513H1846ZM1846 615.551V616.551H1847V615.551H1846ZM1767.99 615.551V614.551H1766.99V615.551H1767.99ZM1767.99 641.576V642.576H1768.99V641.576H1767.99ZM1754.97 641.576H1753.97V642.576H1754.97V641.576ZM1754.97 576.576V575.576H1753.97V576.576H1754.97ZM1767.99 576.576H1768.99V575.576H1767.99V576.576ZM1767.99 602.538H1766.99V603.538H1767.99V602.538ZM1846 602.538H1847V601.538H1846V602.538ZM1846 615.551V614.551H1767.99V615.551V616.551H1846V615.551ZM1767.99 615.551H1766.99V641.576H1767.99H1768.99V615.551H1767.99ZM1767.99 641.576V640.576H1754.97V641.576V642.576H1767.99V641.576ZM1754.97 641.576H1755.97V576.576H1754.97H1753.97V641.576H1754.97ZM1754.97 576.576V577.576H1767.99V576.576V575.576H1754.97V576.576ZM1767.99 576.576H1766.99V602.538H1767.99H1768.99V576.576H1767.99ZM1767.99 602.538V603.538H1846V602.538V601.538H1767.99V602.538ZM1846 602.538H1845V615.551H1846H1847V602.538H1846ZM1845.24 550.106L1845.94 550.815L1845.95 550.814L1845.24 550.106ZM1832.48 562.802L1831.77 562.093L1831.77 562.095L1832.48 562.802ZM1813.5 563.627H1812.5V564.627H1813.5V563.627ZM1813.5 550.614V549.614H1812.5V550.614H1813.5ZM1825.18 550.614V551.614H1825.59L1825.89 551.321L1825.18 550.614ZM1832.99 542.807L1833.69 543.514L1833.99 543.221V542.807H1832.99ZM1832.99 519.384H1833.99V518.97L1833.69 518.677L1832.99 519.384ZM1825.18 511.576L1825.89 510.869L1825.59 510.576H1825.18V511.576ZM1814.77 511.576V510.576H1814.35L1814.06 510.872L1814.77 511.576ZM1807.03 519.384L1806.32 518.68L1806.03 518.972V519.384H1807.03ZM1806.2 550.106L1806.91 550.814L1806.2 550.106ZM1793.5 562.802L1792.8 562.095L1793.5 562.802ZM1768.5 562.802L1767.79 563.509L1768.5 562.802ZM1755.8 550.106L1756.51 549.399L1755.8 550.106ZM1755.8 512.147L1756.51 512.855L1756.51 512.853L1755.8 512.147ZM1768.5 499.389L1767.79 498.682L1767.79 498.683L1768.5 499.389ZM1787.47 498.627H1788.47V497.627H1787.47V498.627ZM1787.47 511.576V512.576H1788.47V511.576H1787.47ZM1775.79 511.576V510.576H1775.38L1775.09 510.869L1775.79 511.576ZM1767.99 519.384L1767.28 518.677L1766.99 518.97V519.384H1767.99ZM1767.99 542.807H1766.99V543.221L1767.28 543.514L1767.99 542.807ZM1775.79 550.614L1775.09 551.321L1775.38 551.614H1775.79V550.614ZM1786.21 550.614V551.614H1786.62L1786.91 551.321L1786.21 550.614ZM1794.01 542.807L1794.72 543.514L1795.01 543.221V542.807H1794.01ZM1846 548.139H1845C1845 548.712 1844.83 549.102 1844.53 549.399L1845.24 550.106L1845.95 550.814C1846.66 550.095 1847 549.173 1847 548.139H1846ZM1845.24 550.106L1844.53 549.398L1831.77 562.093L1832.48 562.802L1833.18 563.511L1845.94 550.815L1845.24 550.106ZM1832.48 562.802L1831.77 562.095C1831.41 562.462 1831 562.627 1830.51 562.627V563.627V564.627C1831.54 564.627 1832.45 564.242 1833.19 563.509L1832.48 562.802ZM1830.51 563.627V562.627H1813.5V563.627V564.627H1830.51V563.627ZM1813.5 563.627H1814.5V550.614H1813.5H1812.5V563.627H1813.5ZM1813.5 550.614V551.614H1825.18V550.614V549.614H1813.5V550.614ZM1825.18 550.614L1825.89 551.321L1833.69 543.514L1832.99 542.807L1832.28 542.1L1824.47 549.907L1825.18 550.614ZM1832.99 542.807H1833.99V519.384H1832.99H1831.99V542.807H1832.99ZM1832.99 519.384L1833.69 518.677L1825.89 510.869L1825.18 511.576L1824.47 512.283L1832.28 520.091L1832.99 519.384ZM1825.18 511.576V510.576H1814.77V511.576V512.576H1825.18V511.576ZM1814.77 511.576L1814.06 510.872L1806.32 518.68L1807.03 519.384L1807.74 520.088L1815.48 512.28L1814.77 511.576ZM1807.03 519.384H1806.03V548.139H1807.03H1808.03V519.384H1807.03ZM1807.03 548.139H1806.03C1806.03 548.629 1805.86 549.032 1805.49 549.399L1806.2 550.106L1806.91 550.814C1807.64 550.08 1808.03 549.172 1808.03 548.139H1807.03ZM1806.2 550.106L1805.49 549.399L1792.8 562.095L1793.5 562.802L1794.21 563.509L1806.91 550.814L1806.2 550.106ZM1793.5 562.802L1792.8 562.095C1792.43 562.462 1792.03 562.627 1791.54 562.627V563.627V564.627C1792.57 564.627 1793.48 564.242 1794.21 563.509L1793.5 562.802ZM1791.54 563.627V562.627H1770.46V563.627V564.627H1791.54V563.627ZM1770.46 563.627V562.627C1769.97 562.627 1769.57 562.462 1769.2 562.095L1768.5 562.802L1767.79 563.509C1768.52 564.242 1769.43 564.627 1770.46 564.627V563.627ZM1768.5 562.802L1769.2 562.095L1756.51 549.399L1755.8 550.106L1755.09 550.814L1767.79 563.509L1768.5 562.802ZM1755.8 550.106L1756.51 549.399C1756.14 549.032 1755.97 548.629 1755.97 548.139H1754.97H1753.97C1753.97 549.172 1754.36 550.08 1755.09 550.814L1755.8 550.106ZM1754.97 548.139H1755.97V514.052H1754.97H1753.97V548.139H1754.97ZM1754.97 514.052H1755.97C1755.97 513.621 1756.13 513.234 1756.51 512.855L1755.8 512.147L1755.09 511.44C1754.37 512.161 1753.97 513.044 1753.97 514.052H1754.97ZM1755.8 512.147L1756.51 512.853L1769.2 500.094L1768.5 499.389L1767.79 498.683L1755.09 511.442L1755.8 512.147ZM1768.5 499.389L1769.2 500.096C1769.5 499.799 1769.89 499.627 1770.46 499.627V498.627V497.627C1769.43 497.627 1768.51 497.963 1767.79 498.682L1768.5 499.389ZM1770.46 498.627V499.627H1787.47V498.627V497.627H1770.46V498.627ZM1787.47 498.627H1786.47V511.576H1787.47H1788.47V498.627H1787.47ZM1787.47 511.576V510.576H1775.79V511.576V512.576H1787.47V511.576ZM1775.79 511.576L1775.09 510.869L1767.28 518.677L1767.99 519.384L1768.69 520.091L1776.5 512.283L1775.79 511.576ZM1767.99 519.384H1766.99V542.807H1767.99H1768.99V519.384H1767.99ZM1767.99 542.807L1767.28 543.514L1775.09 551.321L1775.79 550.614L1776.5 549.907L1768.69 542.1L1767.99 542.807ZM1775.79 550.614V551.614H1786.21V550.614V549.614H1775.79V550.614ZM1786.21 550.614L1786.91 551.321L1794.72 543.514L1794.01 542.807L1793.31 542.1L1785.5 549.907L1786.21 550.614ZM1794.01 542.807H1795.01V514.052H1794.01H1793.01V542.807H1794.01ZM1794.01 514.052H1795.01C1795.01 513.537 1795.17 513.163 1795.48 512.855L1794.77 512.147L1794.07 511.44C1793.36 512.148 1793.01 513.043 1793.01 514.052H1794.01ZM1794.77 512.147L1795.48 512.855L1808.24 500.096L1807.53 499.389L1806.83 498.682L1794.07 511.44L1794.77 512.147ZM1807.53 499.389L1808.24 500.096C1808.54 499.799 1808.93 499.627 1809.5 499.627V498.627V497.627C1808.47 497.627 1807.54 497.963 1806.83 498.682L1807.53 499.389ZM1809.5 498.627V499.627H1830.51V498.627V497.627H1809.5V498.627ZM1830.51 498.627V499.627C1831.09 499.627 1831.48 499.799 1831.77 500.096L1832.48 499.389L1833.19 498.682C1832.47 497.963 1831.55 497.627 1830.51 497.627V498.627ZM1832.48 499.389L1831.77 500.096L1844.53 512.855L1845.24 512.147L1845.95 511.44L1833.19 498.682L1832.48 499.389ZM1845.24 512.147L1844.53 512.855C1844.84 513.163 1845 513.537 1845 514.052H1846H1847C1847 513.043 1846.65 512.148 1845.95 511.44L1845.24 512.147ZM1846 514.052H1845V548.139H1846H1847V514.052H1846Z" fill="#F64040" mask="url(#path-6-outside-3_115_2)"/>
</svg>
