<svg width="213" height="57" viewBox="0 0 213 57" fill="none" xmlns="http://www.w3.org/2000/svg">
<rect x="12" y="7" width="83" height="43" rx="21.5" fill="#F64040"/>
<rect x="1" y="1" width="211" height="55" rx="27.5" stroke="white" stroke-width="2"/>
<path d="M19.937 19.2102V18.2727H26.4824V19.2102H23.7381V27H22.6813V19.2102H19.937ZM28.1135 27V18.2727H33.3805V19.2102H29.1703V22.1591H33.1078V23.0966H29.1703V26.0625H33.4487V27H28.1135ZM42.3081 21H41.2512C41.1887 20.696 41.0794 20.429 40.9231 20.1989C40.7697 19.9688 40.5822 19.7756 40.3606 19.6193C40.1419 19.4602 39.899 19.3409 39.6319 19.2614C39.3649 19.1818 39.0865 19.142 38.7967 19.142C38.2683 19.142 37.7896 19.2756 37.3606 19.5426C36.9345 19.8097 36.595 20.2031 36.3422 20.723C36.0922 21.2429 35.9672 21.8807 35.9672 22.6364C35.9672 23.392 36.0922 24.0298 36.3422 24.5497C36.595 25.0696 36.9345 25.4631 37.3606 25.7301C37.7896 25.9972 38.2683 26.1307 38.7967 26.1307C39.0865 26.1307 39.3649 26.0909 39.6319 26.0114C39.899 25.9318 40.1419 25.8139 40.3606 25.6577C40.5822 25.4986 40.7697 25.304 40.9231 25.0739C41.0794 24.8409 41.1887 24.5739 41.2512 24.2727H42.3081C42.2285 24.7187 42.0836 25.1179 41.8734 25.4702C41.6632 25.8224 41.4018 26.1222 41.0893 26.3693C40.7768 26.6136 40.426 26.7997 40.0368 26.9276C39.6504 27.0554 39.237 27.1193 38.7967 27.1193C38.0524 27.1193 37.3904 26.9375 36.8109 26.5739C36.2314 26.2102 35.7754 25.6932 35.443 25.0227C35.1106 24.3523 34.9444 23.5568 34.9444 22.6364C34.9444 21.7159 35.1106 20.9205 35.443 20.25C35.7754 19.5795 36.2314 19.0625 36.8109 18.6989C37.3904 18.3352 38.0524 18.1534 38.7967 18.1534C39.237 18.1534 39.6504 18.2173 40.0368 18.3452C40.426 18.473 40.7768 18.6605 41.0893 18.9077C41.4018 19.152 41.6632 19.4503 41.8734 19.8026C42.0836 20.152 42.2285 20.5511 42.3081 21ZM44.0158 27V18.2727H45.0726V22.1591H49.726V18.2727H50.7828V27H49.726V23.0966H45.0726V27H44.0158ZM59.8191 18.2727V27H58.7963L54.0407 20.1477H53.9554V27H52.8986V18.2727H53.9213L58.6941 25.142H58.7793V18.2727H59.8191ZM62.9906 18.2727V27H61.9338V18.2727H62.9906ZM72.1323 21H71.0755C71.013 20.696 70.9036 20.429 70.7473 20.1989C70.5939 19.9688 70.4064 19.7756 70.1848 19.6193C69.9661 19.4602 69.7232 19.3409 69.4561 19.2614C69.1891 19.1818 68.9107 19.142 68.6209 19.142C68.0925 19.142 67.6138 19.2756 67.1848 19.5426C66.7587 19.8097 66.4192 20.2031 66.1664 20.723C65.9164 21.2429 65.7914 21.8807 65.7914 22.6364C65.7914 23.392 65.9164 24.0298 66.1664 24.5497C66.4192 25.0696 66.7587 25.4631 67.1848 25.7301C67.6138 25.9972 68.0925 26.1307 68.6209 26.1307C68.9107 26.1307 69.1891 26.0909 69.4561 26.0114C69.7232 25.9318 69.9661 25.8139 70.1848 25.6577C70.4064 25.4986 70.5939 25.304 70.7473 25.0739C70.9036 24.8409 71.013 24.5739 71.0755 24.2727H72.1323C72.0527 24.7187 71.9078 25.1179 71.6976 25.4702C71.4874 25.8224 71.226 26.1222 70.9135 26.3693C70.601 26.6136 70.2502 26.7997 69.861 26.9276C69.4746 27.0554 69.0613 27.1193 68.6209 27.1193C67.8766 27.1193 67.2147 26.9375 66.6351 26.5739C66.0556 26.2102 65.5996 25.6932 65.2672 25.0227C64.9348 24.3523 64.7686 23.5568 64.7686 22.6364C64.7686 21.7159 64.9348 20.9205 65.2672 20.25C65.5996 19.5795 66.0556 19.0625 66.6351 18.6989C67.2147 18.3352 67.8766 18.1534 68.6209 18.1534C69.0613 18.1534 69.4746 18.2173 69.861 18.3452C70.2502 18.473 70.601 18.6605 70.9135 18.9077C71.226 19.152 71.4874 19.4503 71.6976 19.8026C71.9078 20.152 72.0527 20.5511 72.1323 21ZM74.198 27H73.09L76.2946 18.2727H77.3855L80.59 27H79.4821L76.8741 19.6534H76.8059L74.198 27ZM74.6071 23.5909H79.073V24.5284H74.6071V23.5909ZM81.9494 27V18.2727H83.0062V26.0625H87.063V27H81.9494ZM31.1369 39V30.2727H36.4039V31.2102H32.1937V34.1591H36.1312V35.0966H32.1937V38.0625H36.4721V39H31.1369ZM38.6667 30.2727L41.2576 37.6193H41.3599L43.9508 30.2727H45.0588L41.8542 39H40.7633L37.5588 30.2727H38.6667ZM46.4181 39V30.2727H51.6852V31.2102H47.475V34.1591H51.4125V35.0966H47.475V38.0625H51.7534V39H46.4181ZM60.5105 30.2727V39H59.4877L54.7321 32.1477H54.6468V39H53.59V30.2727H54.6127L59.3855 37.142H59.4707V30.2727H60.5105ZM62.1479 31.2102V30.2727H68.6934V31.2102H65.949V39H64.8922V31.2102H62.1479ZM75.0971 32.4545C75.046 32.0227 74.8386 31.6875 74.475 31.4489C74.1113 31.2102 73.6653 31.0909 73.1369 31.0909C72.7505 31.0909 72.4125 31.1534 72.1227 31.2784C71.8358 31.4034 71.6113 31.5753 71.4494 31.794C71.2903 32.0128 71.2108 32.2614 71.2108 32.5398C71.2108 32.7727 71.2662 32.973 71.377 33.1406C71.4906 33.3054 71.6355 33.4432 71.8116 33.554C71.9877 33.6619 72.1724 33.7514 72.3656 33.8224C72.5588 33.8906 72.7363 33.946 72.8983 33.9886L73.7846 34.2273C74.0119 34.2869 74.2647 34.3693 74.5431 34.4744C74.8244 34.5795 75.0929 34.723 75.3485 34.9048C75.6071 35.0838 75.8201 35.3139 75.9877 35.5952C76.1554 35.8764 76.2392 36.2216 76.2392 36.6307C76.2392 37.1023 76.1156 37.5284 75.8684 37.9091C75.6241 38.2898 75.2662 38.5923 74.7946 38.8168C74.3258 39.0412 73.7562 39.1534 73.0858 39.1534C72.4608 39.1534 71.9196 39.0526 71.4622 38.8509C71.0076 38.6491 70.6497 38.3679 70.3883 38.0071C70.1298 37.6463 69.9835 37.2273 69.9494 36.75H71.0403C71.0687 37.0795 71.1795 37.3523 71.3727 37.5682C71.5687 37.7812 71.8159 37.9403 72.1142 38.0455C72.4153 38.1477 72.7392 38.1989 73.0858 38.1989C73.4892 38.1989 73.8514 38.1335 74.1724 38.0028C74.4934 37.8693 74.7477 37.6847 74.9352 37.4489C75.1227 37.2102 75.2164 36.9318 75.2164 36.6136C75.2164 36.3239 75.1355 36.0881 74.9735 35.9062C74.8116 35.7244 74.5985 35.5767 74.3343 35.4631C74.0701 35.3494 73.7846 35.25 73.4778 35.1648L72.4039 34.858C71.7221 34.6619 71.1824 34.3821 70.7846 34.0185C70.3869 33.6548 70.188 33.179 70.188 32.5909C70.188 32.1023 70.3201 31.6761 70.5843 31.3125C70.8514 30.946 71.2093 30.6619 71.6582 30.4602C72.1099 30.2557 72.6142 30.1534 73.171 30.1534C73.7335 30.1534 74.2335 30.2543 74.671 30.456C75.1085 30.6548 75.4551 30.9276 75.7108 31.2741C75.9693 31.6207 76.1056 32.0142 76.1199 32.4545H75.0971Z" fill="white"/>
<path d="M110.415 16.2727V25H109.392L104.636 18.1477H104.551V25H103.494V16.2727H104.517L109.29 23.142H109.375V16.2727H110.415ZM119.893 20.6364C119.893 21.5568 119.727 22.3523 119.395 23.0227C119.062 23.6932 118.606 24.2102 118.027 24.5739C117.447 24.9375 116.785 25.1193 116.041 25.1193C115.297 25.1193 114.635 24.9375 114.055 24.5739C113.475 24.2102 113.02 23.6932 112.687 23.0227C112.355 22.3523 112.189 21.5568 112.189 20.6364C112.189 19.7159 112.355 18.9205 112.687 18.25C113.02 17.5795 113.475 17.0625 114.055 16.6989C114.635 16.3352 115.297 16.1534 116.041 16.1534C116.785 16.1534 117.447 16.3352 118.027 16.6989C118.606 17.0625 119.062 17.5795 119.395 18.25C119.727 18.9205 119.893 19.7159 119.893 20.6364ZM118.87 20.6364C118.87 19.8807 118.744 19.2429 118.491 18.723C118.241 18.2031 117.902 17.8097 117.473 17.5426C117.047 17.2756 116.569 17.142 116.041 17.142C115.512 17.142 115.034 17.2756 114.605 17.5426C114.179 17.8097 113.839 18.2031 113.586 18.723C113.336 19.2429 113.211 19.8807 113.211 20.6364C113.211 21.392 113.336 22.0298 113.586 22.5497C113.839 23.0696 114.179 23.4631 114.605 23.7301C115.034 23.9972 115.512 24.1307 116.041 24.1307C116.569 24.1307 117.047 23.9972 117.473 23.7301C117.902 23.4631 118.241 23.0696 118.491 22.5497C118.744 22.0298 118.87 21.392 118.87 20.6364ZM128.591 16.2727V25H127.568L122.812 18.1477H122.727V25H121.67V16.2727H122.693L127.466 23.142H127.551V16.2727H128.591ZM134.319 20.1676V21.1051H130.501V20.1676H134.319ZM134.857 17.2102V16.2727H141.402V17.2102H138.658V25H137.601V17.2102H134.857ZM143.033 25V16.2727H148.3V17.2102H144.09V20.1591H148.028V21.0966H144.09V24.0625H148.369V25H143.033ZM157.228 19H156.171C156.109 18.696 155.999 18.429 155.843 18.1989C155.69 17.9688 155.502 17.7756 155.281 17.6193C155.062 17.4602 154.819 17.3409 154.552 17.2614C154.285 17.1818 154.006 17.142 153.717 17.142C153.188 17.142 152.71 17.2756 152.281 17.5426C151.854 17.8097 151.515 18.2031 151.262 18.723C151.012 19.2429 150.887 19.8807 150.887 20.6364C150.887 21.392 151.012 22.0298 151.262 22.5497C151.515 23.0696 151.854 23.4631 152.281 23.7301C152.71 23.9972 153.188 24.1307 153.717 24.1307C154.006 24.1307 154.285 24.0909 154.552 24.0114C154.819 23.9318 155.062 23.8139 155.281 23.6577C155.502 23.4986 155.69 23.304 155.843 23.0739C155.999 22.8409 156.109 22.5739 156.171 22.2727H157.228C157.148 22.7187 157.004 23.1179 156.793 23.4702C156.583 23.8224 156.322 24.1222 156.009 24.3693C155.697 24.6136 155.346 24.7997 154.957 24.9276C154.57 25.0554 154.157 25.1193 153.717 25.1193C152.972 25.1193 152.31 24.9375 151.731 24.5739C151.151 24.2102 150.695 23.6932 150.363 23.0227C150.031 22.3523 149.864 21.5568 149.864 20.6364C149.864 19.7159 150.031 18.9205 150.363 18.25C150.695 17.5795 151.151 17.0625 151.731 16.6989C152.31 16.3352 152.972 16.1534 153.717 16.1534C154.157 16.1534 154.57 16.2173 154.957 16.3452C155.346 16.473 155.697 16.6605 156.009 16.9077C156.322 17.152 156.583 17.4503 156.793 17.8026C157.004 18.152 157.148 18.5511 157.228 19ZM158.936 25V16.2727H159.993V20.1591H164.646V16.2727H165.703V25H164.646V21.0966H159.993V25H158.936ZM174.739 16.2727V25H173.716L168.961 18.1477H168.875V25H167.819V16.2727H168.841L173.614 23.142H173.699V16.2727H174.739ZM177.911 16.2727V25H176.854V16.2727H177.911ZM187.052 19H185.995C185.933 18.696 185.824 18.429 185.667 18.1989C185.514 17.9688 185.326 17.7756 185.105 17.6193C184.886 17.4602 184.643 17.3409 184.376 17.2614C184.109 17.1818 183.831 17.142 183.541 17.142C183.012 17.142 182.534 17.2756 182.105 17.5426C181.679 17.8097 181.339 18.2031 181.086 18.723C180.836 19.2429 180.711 19.8807 180.711 20.6364C180.711 21.392 180.836 22.0298 181.086 22.5497C181.339 23.0696 181.679 23.4631 182.105 23.7301C182.534 23.9972 183.012 24.1307 183.541 24.1307C183.831 24.1307 184.109 24.0909 184.376 24.0114C184.643 23.9318 184.886 23.8139 185.105 23.6577C185.326 23.4986 185.514 23.304 185.667 23.0739C185.824 22.8409 185.933 22.5739 185.995 22.2727H187.052C186.973 22.7187 186.828 23.1179 186.618 23.4702C186.407 23.8224 186.146 24.1222 185.833 24.3693C185.521 24.6136 185.17 24.7997 184.781 24.9276C184.395 25.0554 183.981 25.1193 183.541 25.1193C182.797 25.1193 182.135 24.9375 181.555 24.5739C180.975 24.2102 180.52 23.6932 180.187 23.0227C179.855 22.3523 179.689 21.5568 179.689 20.6364C179.689 19.7159 179.855 18.9205 180.187 18.25C180.52 17.5795 180.975 17.0625 181.555 16.6989C182.135 16.3352 182.797 16.1534 183.541 16.1534C183.981 16.1534 184.395 16.2173 184.781 16.3452C185.17 16.473 185.521 16.6605 185.833 16.9077C186.146 17.152 186.407 17.4503 186.618 17.8026C186.828 18.152 186.973 18.5511 187.052 19ZM189.118 25H188.01L191.214 16.2727H192.305L195.51 25H194.402L191.794 17.6534H191.726L189.118 25ZM189.527 21.5909H193.993V22.5284H189.527V21.5909ZM196.869 25V16.2727H197.926V24.0625H201.983V25H196.869ZM130.137 37V28.2727H135.404V29.2102H131.194V32.1591H135.131V33.0966H131.194V36.0625H135.472V37H130.137ZM137.667 28.2727L140.258 35.6193H140.36L142.951 28.2727H144.059L140.854 37H139.763L136.559 28.2727H137.667ZM145.418 37V28.2727H150.685V29.2102H146.475V32.1591H150.412V33.0966H146.475V36.0625H150.753V37H145.418ZM159.51 28.2727V37H158.488L153.732 30.1477H153.647V37H152.59V28.2727H153.613L158.385 35.142H158.471V28.2727H159.51ZM161.148 29.2102V28.2727H167.693V29.2102H164.949V37H163.892V29.2102H161.148ZM174.097 30.4545C174.046 30.0227 173.839 29.6875 173.475 29.4489C173.111 29.2102 172.665 29.0909 172.137 29.0909C171.751 29.0909 171.412 29.1534 171.123 29.2784C170.836 29.4034 170.611 29.5753 170.449 29.794C170.29 30.0128 170.211 30.2614 170.211 30.5398C170.211 30.7727 170.266 30.973 170.377 31.1406C170.491 31.3054 170.635 31.4432 170.812 31.554C170.988 31.6619 171.172 31.7514 171.366 31.8224C171.559 31.8906 171.736 31.946 171.898 31.9886L172.785 32.2273C173.012 32.2869 173.265 32.3693 173.543 32.4744C173.824 32.5795 174.093 32.723 174.349 32.9048C174.607 33.0838 174.82 33.3139 174.988 33.5952C175.155 33.8764 175.239 34.2216 175.239 34.6307C175.239 35.1023 175.116 35.5284 174.868 35.9091C174.624 36.2898 174.266 36.5923 173.795 36.8168C173.326 37.0412 172.756 37.1534 172.086 37.1534C171.461 37.1534 170.92 37.0526 170.462 36.8509C170.008 36.6491 169.65 36.3679 169.388 36.0071C169.13 35.6463 168.983 35.2273 168.949 34.75H170.04C170.069 35.0795 170.18 35.3523 170.373 35.5682C170.569 35.7812 170.816 35.9403 171.114 36.0455C171.415 36.1477 171.739 36.1989 172.086 36.1989C172.489 36.1989 172.851 36.1335 173.172 36.0028C173.493 35.8693 173.748 35.6847 173.935 35.4489C174.123 35.2102 174.216 34.9318 174.216 34.6136C174.216 34.3239 174.135 34.0881 173.974 33.9062C173.812 33.7244 173.599 33.5767 173.334 33.4631C173.07 33.3494 172.785 33.25 172.478 33.1648L171.404 32.858C170.722 32.6619 170.182 32.3821 169.785 32.0185C169.387 31.6548 169.188 31.179 169.188 30.5909C169.188 30.1023 169.32 29.6761 169.584 29.3125C169.851 28.946 170.209 28.6619 170.658 28.4602C171.11 28.2557 171.614 28.1534 172.171 28.1534C172.733 28.1534 173.233 28.2543 173.671 28.456C174.108 28.6548 174.455 28.9276 174.711 29.2741C174.969 29.6207 175.106 30.0142 175.12 30.4545H174.097Z" fill="white"/>
</svg>
