<svg width="464" height="636" viewBox="0 0 464 636" fill="none" xmlns="http://www.w3.org/2000/svg">
<path d="M1 80.5V19C1 9.05888 9.05887 1 19 1H112.169C115.016 1 117.822 1.67525 120.357 2.9703L170.393 28.5297C172.928 29.8248 175.734 30.5 178.581 30.5H232H285.419C288.266 30.5 291.072 29.8247 293.607 28.5297L343.643 2.9703C346.178 1.67525 348.984 1 351.831 1H405.25H445C454.941 1 463 9.05887 463 19V45.625V90.25V179.5V249.25V319V478V548.895C463 554.337 460.538 559.486 456.303 562.904L419 593L373.141 630.991C369.824 633.739 365.632 635.206 361.326 635.127L273 633.5L89.799 630.125C85.4175 630.045 81.2159 628.368 77.9822 625.411L6.85163 560.352C3.12343 556.942 1 552.122 1 547.07V80.5Z" fill="#1F1F1F" stroke="black"/>
</svg>
