<svg width="1057" height="643" viewBox="0 0 1057 643" fill="none" xmlns="http://www.w3.org/2000/svg">
<mask id="path-1-inside-1_135_135" fill="white">
<path d="M495 0C504.941 8.11708e-07 513 8.05888 513 18V78C513 87.9411 521.059 96 531 96H596C605.941 96 614 104.059 614 114V469C614 486.673 628.327 501 646 501H1025C1042.67 501 1057 515.327 1057 533V611C1057 628.673 1042.67 643 1025 643H28C12.536 643 0 630.464 0 615V190.522C0 171.203 21.1801 158 40.5 158H124.5C175.034 158 216 117.034 216 66.5C216 65.1325 215.97 63.7718 215.91 62.4189C214.8 37.1175 232.396 3.48688e-05 257.722 0H495Z"/>
</mask>
<path d="M495 0C504.941 8.11708e-07 513 8.05888 513 18V78C513 87.9411 521.059 96 531 96H596C605.941 96 614 104.059 614 114V469C614 486.673 628.327 501 646 501H1025C1042.67 501 1057 515.327 1057 533V611C1057 628.673 1042.67 643 1025 643H28C12.536 643 0 630.464 0 615V190.522C0 171.203 21.1801 158 40.5 158H124.5C175.034 158 216 117.034 216 66.5C216 65.1325 215.97 63.7718 215.91 62.4189C214.8 37.1175 232.396 3.48688e-05 257.722 0H495Z" fill="black"/>
<path d="M495 0V-1V0ZM531 96V97V96ZM596 96V95V96ZM28 643V644V643ZM124.5 158V159V158ZM215.91 62.4189L214.911 62.4628V62.4628L215.91 62.4189ZM257.722 0V-1V0ZM495 0V1C504.389 1 512 8.61116 512 18H513H514C514 7.50659 505.493 -0.999999 495 -1V0ZM513 18H512V78H513H514V18H513ZM513 78H512C512 88.4934 520.507 97 531 97V96V95C521.611 95 514 87.3888 514 78H513ZM531 96V97H596V96V95H531V96ZM596 96V97C605.389 97 613 104.611 613 114H614H615C615 103.507 606.493 95 596 95V96ZM614 114H613V469H614H615V114H614ZM646 501V502H1025V501V500H646V501ZM1057 533H1056V611H1057H1058V533H1057ZM1025 643V642H28V643V644H1025V643ZM28 643V642C13.0883 642 1 629.912 1 615H0H-1C-1 631.016 11.9837 644 28 644V643ZM0 615H1V190.522H0H-1V615H0ZM0 190.522H1C1 181.261 6.0715 173.401 13.6006 167.82C21.1354 162.234 31.0509 159 40.5 159V158V157C30.6292 157 20.2947 160.367 12.4095 166.213C4.51857 172.063 -1 180.464 -1 190.522H0ZM40.5 158V159H124.5V158V157H40.5V158ZM124.5 158V159C175.586 159 217 117.586 217 66.5H216H215C215 116.482 174.482 157 124.5 157V158ZM216 66.5H217C217 65.1177 216.969 63.7423 216.909 62.3751L215.91 62.4189L214.911 62.4628C214.97 63.8013 215 65.1474 215 66.5H216ZM215.91 62.4189L216.909 62.3751C216.363 49.9401 220.424 34.5268 227.761 22.2339C235.115 9.91253 245.581 1.00002 257.722 1V0V-1C244.537 -0.999982 233.542 8.64623 226.044 21.2089C218.529 33.8002 214.346 49.5964 214.911 62.4628L215.91 62.4189ZM257.722 0V1H495V0V-1H257.722V0ZM1057 611H1056C1056 628.121 1042.12 642 1025 642V643V644C1043.23 644 1058 629.225 1058 611H1057ZM1025 501V502C1042.12 502 1056 515.879 1056 533H1057H1058C1058 514.775 1043.23 500 1025 500V501ZM614 469H613C613 487.225 627.775 502 646 502V501V500C628.879 500 615 486.121 615 469H614Z" fill="#F64040" mask="url(#path-1-inside-1_135_135)"/>
</svg>
